<?xml version="1.0" standalone="no"?>
<!DOCTYPE svg PUBLIC "-//W3C//DTD SVG 20010904//EN"
 "http://www.w3.org/TR/2001/REC-SVG-20010904/DTD/svg10.dtd">
<svg version="1.0" xmlns="http://www.w3.org/2000/svg"
 width="170.000000pt" height="170.000000pt" viewBox="0 0 170.000000 170.000000"
 preserveAspectRatio="xMidYMid meet">

<g transform="translate(0.000000,170.000000) scale(0.100000,-0.100000)"
fill="#000000" stroke="none">
<path d="M0 850 l0 -580 850 0 850 0 0 580 0 580 -850 0 -850 0 0 -580z m482
520 c-11 -8 -13 -30 -3 -30 5 0 11 9 14 20 8 30 57 28 58 -2 1 -22 1 -22 9 2
l8 25 1 -26 c1 -26 -1 -26 -54 -26 -53 0 -55 0 -55 27 0 31 10 45 21 28 4 -7
5 -15 1 -18z m515 -5 c-2 -39 -26 -49 -28 -12 -1 21 -1 21 -9 -3 l-7 -25 -10
25 c-9 22 -8 25 11 28 11 2 25 8 31 13 13 13 14 12 12 -26z m70 15 c-3 -11 -1
-20 4 -20 5 0 9 4 9 9 0 5 23 9 50 8 28 0 50 -5 50 -10 0 -5 7 -4 15 3 13 11
15 8 15 -16 0 -16 -4 -24 -8 -19 -9 13 -32 18 -32 7 0 -4 -20 -9 -45 -9 -25
-1 -45 3 -45 8 0 5 -5 9 -11 9 -5 0 -7 -4 -4 -10 4 -6 -7 -10 -24 -10 -27 0
-31 3 -30 28 2 23 2 24 6 5 5 -27 23 -31 23 -5 0 16 17 42 28 42 2 0 2 -9 -1
-20z m-937 -10 c-13 -8 -12 -10 3 -10 9 0 17 4 17 9 0 5 31 9 68 9 53 0 69 -3
69 -14 0 -8 -4 -14 -9 -14 -4 0 -8 5 -8 10 0 6 -7 10 -15 10 -27 0 -16 -29 13
-32 15 -2 -26 -4 -90 -4 -64 0 -116 2 -114 5 2 3 5 13 8 21 3 9 20 16 39 17
25 2 30 0 19 -7z m251 2 c-11 -4 -11 -6 0 -13 12 -7 11 -9 -1 -9 -13 0 -13 -2
-1 -9 10 -6 2 -9 -23 -9 -38 0 -51 10 -43 32 4 9 21 14 44 14 21 0 32 -3 24
-6z m65 -17 c-2 -35 -36 -35 -36 0 0 18 5 25 19 25 14 0 19 -7 17 -25z m159 3
c7 21 25 31 25 13 0 -5 2 -15 5 -23 4 -9 -5 -14 -25 -15 -27 -2 -30 1 -29 25
l1 27 8 -25 8 -25 7 23z m180 -2 c0 -15 -9 -19 -42 -22 -29 -2 -43 1 -43 9 0
7 -4 6 -10 -3 -8 -12 -10 -11 -10 8 0 12 -4 22 -9 22 -5 0 -11 -10 -13 -22 -3
-21 -4 -21 -9 4 l-6 28 71 -3 c62 -2 71 -4 71 -21z m123 -1 c2 -23 -1 -25 -48
-24 -45 1 -50 4 -50 24 0 20 5 23 48 23 44 1 48 0 50 -23z m372 5 c0 -11 5
-20 10 -20 6 0 10 9 10 19 0 15 7 19 35 19 30 0 35 -3 35 -22 0 -22 -4 -23
-75 -23 -70 0 -75 2 -75 21 0 16 7 21 30 23 24 2 30 -2 30 -17z m123 13 c-18
-7 -16 -33 2 -33 8 0 15 9 15 20 0 18 6 20 75 18 45 -1 75 -6 75 -12 0 -7 3
-8 8 -1 4 6 18 11 32 13 20 2 22 1 10 -7 -10 -7 -11 -11 -2 -11 6 0 12 -7 12
-15 0 -8 -8 -15 -17 -15 -14 0 -15 2 -5 9 11 7 11 9 -2 14 -11 4 -16 1 -16
-10 0 -13 -3 -13 -15 -3 -8 7 -15 8 -15 3 0 -5 -16 -10 -35 -10 -27 0 -35 4
-35 19 0 26 -20 22 -21 -4 l-2 -23 -4 23 c-2 12 -9 22 -14 22 -6 0 -8 -8 -5
-17 5 -15 -1 -18 -29 -20 -31 -3 -35 0 -35 22 0 17 5 25 18 24 10 0 12 -3 5
-6z m-690 -80 c-15 -5 -18 -33 -4 -33 5 0 13 9 16 20 8 25 25 26 26 3 1 -17 2
-17 6 0 5 20 23 23 24 5 0 -10 2 -10 6 0 2 6 15 12 27 12 17 0 22 -6 22 -24 0
-17 -5 -24 -18 -23 -10 1 -18 4 -18 7 0 4 -7 7 -15 7 -8 0 -15 -3 -15 -7 0
-11 -75 -9 -82 3 -10 16 2 37 21 36 10 0 11 -2 4 -6z m228 -17 c1 -18 2 -18 9
4 l8 25 1 -27 c1 -26 0 -26 -54 -25 -50 2 -55 4 -55 25 0 21 4 23 45 21 38 -2
45 -6 46 -23z m69 -2 c0 -13 -4 -24 -10 -24 -5 0 -10 6 -10 13 0 8 -4 7 -10
-3 -8 -12 -10 -10 -10 10 0 19 6 26 20 27 15 1 20 -4 20 -23z m578 -80 c25
-17 48 -54 33 -54 -5 0 -13 9 -16 20 -3 11 -17 23 -31 26 -13 3 -24 10 -24 15
0 13 13 11 38 -7z m2 -29 c21 -25 -3 -41 -31 -21 -16 11 -19 16 -8 16 8 0 19
-3 25 -7 5 -5 1 0 -9 10 -15 13 -16 17 -4 17 8 0 20 -7 27 -15z m-42 -59 c5
-38 -10 -46 -85 -46 -83 0 -93 -14 -93 -130 0 -93 -7 -114 -36 -108 -17 3 -19
14 -19 121 l1 117 -86 0 c-87 0 -110 8 -110 40 0 37 18 40 225 38 l200 -3 3
-29z m-788 -421 c77 -14 94 -14 185 1 78 13 138 16 279 11 99 -3 182 -9 183
-14 2 -5 19 -7 38 -5 49 6 44 -13 -7 -26 l-43 -11 40 6 c62 10 92 7 109 -10 9
-9 32 -21 51 -28 48 -18 44 -30 -7 -24 -236 27 -393 31 -528 15 -113 -14 -160
-28 -160 -45 0 -11 -13 -15 -55 -15 -42 0 -55 4 -55 15 0 17 -44 30 -153 44
-105 15 -252 13 -422 -3 -84 -9 -144 -10 -150 -5 -5 6 -2 9 8 9 18 0 67 27 78
44 8 11 50 12 104 3 l40 -6 -42 11 c-52 13 -57 32 -8 26 19 -2 35 -1 35 3 0
21 370 23 480 4z m-60 -260 c-7 -9 -10 -18 -7 -21 9 -9 27 5 27 22 0 20 20 17
21 -3 1 -17 2 -17 6 0 5 20 19 22 26 5 4 -10 8 -9 16 2 9 12 11 10 11 -11 0
-23 -3 -25 -37 -24 -21 1 -44 -3 -51 -8 -9 -7 -18 -6 -28 5 -17 17 -9 48 13
48 13 0 13 -3 3 -15z m135 -5 c-2 -11 1 -20 6 -20 5 0 9 8 7 17 -2 13 4 18 27
19 17 0 36 -3 43 -9 8 -6 12 -6 12 1 0 6 14 10 30 10 17 -1 30 -6 30 -12 0 -6
5 -4 10 4 7 12 10 8 10 -14 0 -16 -3 -27 -6 -24 -3 4 -19 2 -35 -2 -17 -5 -31
-5 -35 1 -4 6 -10 6 -19 -1 -8 -7 -21 -7 -37 -1 -14 5 -31 5 -38 1 -20 -12
-30 -3 -30 26 0 14 6 24 14 24 9 0 13 -7 11 -20z m-587 -90 c-1 -35 -15 -39
-28 -7 -7 17 -9 18 -9 5 -1 -18 -21 -26 -21 -9 0 5 -3 16 -6 25 -5 13 1 16 29
16 33 0 36 -2 35 -30z m33 -10 c5 0 9 9 9 20 0 11 7 20 15 20 8 0 15 -5 15
-11 0 -8 4 -8 13 -1 6 5 23 9 37 8 20 -1 25 -6 25 -26 0 -20 -5 -25 -25 -26
-14 -1 -33 5 -43 14 -16 15 -17 14 -11 -1 5 -14 0 -17 -25 -17 -29 0 -31 3
-30 33 1 23 3 26 6 10 2 -13 9 -23 14 -23z m166 31 c9 9 17 8 29 -2 9 -7 18
-9 22 -3 13 17 32 14 32 -6 0 -11 5 -20 10 -20 6 0 10 9 10 20 0 22 15 27 26
9 4 -8 9 -7 15 2 6 9 8 2 8 -21 0 -19 -3 -30 -5 -23 -4 9 -13 9 -31 2 -13 -5
-30 -6 -36 -2 -19 12 -39 12 -59 2 -12 -6 -18 -6 -18 1 0 14 -27 13 -33 -2 -3
-7 -6 3 -6 22 -1 26 2 31 11 22 8 -8 15 -9 25 -1z m187 -2 c4 6 12 11 18 11 6
0 6 -6 -2 -15 -7 -9 -10 -19 -6 -23 4 -4 15 4 25 17 l18 24 6 -24 c4 -13 7
-26 7 -29 0 -10 -60 -9 -66 1 -4 8 -9 7 -15 -2 -6 -9 -9 -2 -9 21 0 23 3 30 9
21 6 -9 11 -10 15 -2z m116 0 c0 -6 5 -7 13 -2 18 12 57 11 57 -2 0 -6 3 -7 8
0 4 6 16 12 27 13 11 2 17 1 13 -4 -4 -4 -3 -13 4 -21 16 -20 -4 -38 -28 -25
-11 6 -27 7 -42 1 -16 -6 -29 -6 -37 1 -9 8 -15 7 -18 -2 -3 -7 -6 0 -6 15 -1
32 -21 27 -21 -5 0 -27 -5 -21 -14 15 -6 24 -4 27 19 27 14 0 25 -5 25 -11z
m218 -20 c-1 -28 -16 -34 -45 -16 -6 4 -14 1 -16 -5 -3 -7 -6 1 -6 19 -1 29 1
31 33 31 32 0 35 -3 34 -29z m34 19 c-16 -16 -15 -29 2 -22 8 3 17 13 19 22 3
12 5 10 6 -5 1 -28 21 -31 21 -3 0 23 27 17 33 -8 4 -14 6 -14 12 4 5 17 15
21 53 21 26 1 50 -4 54 -11 6 -8 8 -8 8 2 0 6 11 12 25 12 14 0 25 -6 25 -12
0 -9 4 -8 10 2 9 13 10 13 9 0 0 -8 -4 -24 -8 -34 -7 -19 -8 -18 -15 5 -7 23
-8 23 -16 4 -5 -11 -9 -15 -9 -10 -1 6 -6 3 -11 -5 -8 -12 -10 -12 -10 -1 0
11 -3 11 -15 1 -17 -14 -35 -5 -36 18 -1 11 -4 8 -9 -8 -7 -23 -8 -23 -9 -3
-1 12 -6 25 -12 29 -8 5 -10 0 -6 -17 6 -25 6 -25 -65 -24 -49 0 -73 4 -76 13
-6 18 5 42 20 42 9 0 9 -3 0 -12z m334 1 c4 -8 9 -7 15 2 7 11 12 12 29 1 16
-10 20 -10 20 0 1 7 7 2 15 -12 l14 -25 1 23 c0 34 24 22 28 -14 2 -22 0 -26
-7 -14 -6 8 -11 11 -11 5 0 -11 -75 -13 -86 -2 -4 4 -13 2 -20 -4 -17 -14 -34
-3 -34 20 0 29 22 42 36 20z m172 -13 c4 -17 -12 -35 -30 -36 -5 0 -8 14 -8
31 0 24 4 30 17 27 10 -2 19 -12 21 -22z"/>
<path d="M1090 1355 c0 -8 5 -15 10 -15 6 0 10 7 10 15 0 8 -4 15 -10 15 -5 0
-10 -7 -10 -15z"/>
<path d="M1130 1354 c0 -8 5 -12 10 -9 6 4 8 11 5 16 -9 14 -15 11 -15 -7z"/>
<path d="M331 1354 c0 -11 3 -14 6 -6 3 7 2 16 -1 19 -3 4 -6 -2 -5 -13z"/>
<path d="M710 1354 c0 -8 5 -12 10 -9 6 3 10 10 10 16 0 5 -4 9 -10 9 -5 0
-10 -7 -10 -16z"/>
<path d="M821 1354 c0 -11 3 -14 6 -6 3 7 2 16 -1 19 -3 4 -6 -2 -5 -13z"/>
<path d="M863 1355 c0 -8 9 -15 20 -15 16 0 17 3 7 15 -7 8 -16 15 -20 15 -3
0 -7 -7 -7 -15z"/>
<path d="M1521 1354 c0 -11 3 -14 6 -6 3 7 2 16 -1 19 -3 4 -6 -2 -5 -13z"/>
<path d="M890 1281 c0 -6 5 -13 10 -16 6 -3 10 1 10 9 0 9 -4 16 -10 16 -5 0
-10 -4 -10 -9z"/>
<path d="M580 680 l-55 -7 45 -1 c25 0 63 3 85 7 33 7 34 9 10 8 -16 0 -55 -3
-85 -7z"/>
<path d="M1040 680 c46 -9 137 -13 129 -6 -2 2 -42 6 -89 9 -62 4 -73 3 -40
-3z"/>
<path d="M938 673 c7 -3 16 -2 19 1 4 3 -2 6 -13 5 -11 0 -14 -3 -6 -6z"/>
<path d="M318 663 c7 -3 16 -2 19 1 4 3 -2 6 -13 5 -11 0 -14 -3 -6 -6z"/>
<path d="M600 658 c-36 -5 -108 -7 -160 -5 -77 4 -87 3 -50 -5 42 -9 167 -6
285 7 l50 5 -50 -15 c-48 -14 -48 -14 -10 -10 22 3 56 7 75 10 27 3 22 0 -20
-14 -68 -24 -58 -26 22 -5 71 18 82 16 83 -17 0 -17 6 -25 23 -27 12 -2 20 -8
17 -13 -4 -5 -2 -9 3 -9 6 0 13 7 16 16 3 8 2 12 -4 9 -6 -3 -10 3 -10 15 0
13 -10 24 -27 31 -22 8 -24 12 -13 20 10 6 4 7 -20 4 -20 -3 -28 -2 -18 2 24
11 -114 12 -192 1z"/>
<path d="M895 658 c15 -6 12 -7 -13 -3 -31 4 -32 4 -15 -14 10 -11 32 -22 48
-25 29 -6 28 -5 -5 9 -31 14 -32 15 -6 10 15 -3 42 -8 60 -11 27 -4 26 -3 -9
11 l-40 15 38 -5 c116 -15 115 -15 62 0 l-50 15 55 -5 c140 -13 239 -16 280
-7 37 7 25 8 -65 8 -60 0 -166 2 -235 5 -75 4 -117 3 -105 -3z"/>
<path d="M1358 663 c7 -3 16 -2 19 1 4 3 -2 6 -13 5 -11 0 -14 -3 -6 -6z"/>
<path d="M750 615 c-19 -7 -28 -13 -20 -13 8 0 31 6 50 13 19 7 28 13 20 13
-8 0 -31 -6 -50 -13z"/>
<path d="M785 600 c-3 -6 1 -7 9 -4 18 7 21 14 7 14 -6 0 -13 -4 -16 -10z"/>
<path d="M806 575 c4 -8 13 -15 21 -15 12 0 12 2 -1 15 -8 8 -17 15 -20 15 -3
0 -3 -7 0 -15z"/>
<path d="M896 421 c-4 -7 -5 -15 -2 -18 9 -9 19 4 14 18 -4 11 -6 11 -12 0z"/>
<path d="M346 341 c-4 -7 -5 -15 -2 -18 9 -9 19 4 14 18 -4 11 -6 11 -12 0z"/>
<path d="M375 330 c3 -5 8 -10 11 -10 2 0 4 5 4 10 0 6 -5 10 -11 10 -5 0 -7
-4 -4 -10z"/>
<path d="M770 330 c0 -5 5 -10 10 -10 6 0 10 5 10 10 0 6 -4 10 -10 10 -5 0
-10 -4 -10 -10z"/>
<path d="M1361 334 c0 -11 3 -14 6 -6 3 7 2 16 -1 19 -3 4 -6 -2 -5 -13z"/>
<path d="M1480 329 c0 -5 5 -7 10 -4 6 3 10 8 10 11 0 2 -4 4 -10 4 -5 0 -10
-5 -10 -11z"/>
</g>
</svg>
