<?xml version="1.0" standalone="no"?>
<!DOCTYPE svg PUBLIC "-//W3C//DTD SVG 20010904//EN"
 "http://www.w3.org/TR/2001/REC-SVG-20010904/DTD/svg10.dtd">
<svg version="1.0" xmlns="http://www.w3.org/2000/svg"
 width="225.000000pt" height="225.000000pt" viewBox="0 0 225.000000 225.000000"
 preserveAspectRatio="xMidYMid meet">

<g transform="translate(0.000000,225.000000) scale(0.100000,-0.100000)"
fill="#000000" stroke="none">
<path d="M1047 1409 c-601 -30 -910 -113 -958 -256 -33 -101 53 -180 258 -238
149 -41 280 -57 528 -60 250 -4 250 -2 -5 40 -85 14 -195 37 -244 52 l-88 27
43 10 c32 8 49 20 67 45 l23 35 -23 12 c-20 11 -25 9 -45 -13 -37 -39 -63 -15
-49 43 12 47 76 88 76 49 0 -16 12 -18 48 -9 26 7 28 31 6 63 -25 35 -93 25
-140 -20 -39 -38 -69 -117 -60 -160 l6 -30 -32 18 c-99 57 -80 157 41 214 162
76 478 115 1331 166 l135 8 -160 6 c-218 9 -567 8 -758 -2z"/>
<path d="M734 1116 c-41 -63 -74 -116 -74 -120 0 -15 57 -4 73 14 9 11 26 20
38 20 12 0 23 -8 26 -20 4 -14 14 -20 33 -20 34 0 40 23 40 150 l0 87 -31 1
c-28 1 -36 -8 -105 -112z m67 -29 c-18 -18 -23 -1 -9 29 13 28 13 28 16 5 2
-13 -1 -28 -7 -34z"/>
<path d="M927 1117 c-20 -62 -37 -116 -37 -120 0 -4 11 -7 24 -7 21 0 28 9 45
58 l21 57 -6 -57 c-5 -57 -5 -58 20 -58 20 0 31 11 57 60 36 64 48 73 25 19
-31 -76 -31 -81 0 -77 26 3 31 11 66 108 20 58 37 110 37 116 1 6 -15 10 -36
10 -35 -1 -40 -5 -72 -59 -19 -31 -35 -56 -36 -55 -1 2 1 27 4 56 4 29 5 54 3
57 -3 3 -22 5 -41 5 l-37 0 -37 -113z"/>
<path d="M1227 1223 c-4 -6 -24 -60 -46 -121 l-39 -112 33 0 c30 0 35 4 46 38
6 20 14 41 17 46 8 14 22 -17 22 -51 l0 -33 70 0 c59 0 71 3 80 20 7 13 21 20
40 20 23 0 30 -4 30 -20 0 -16 7 -20 34 -20 l35 0 3 116 c2 64 0 118 -3 120
-4 2 -21 1 -37 -2 -26 -5 -42 -23 -99 -115 -37 -59 -71 -108 -74 -109 -4 0 -9
21 -11 47 -3 40 0 50 24 74 28 28 39 81 18 94 -18 11 -137 18 -143 8z m81 -70
c-4 -22 -48 -31 -48 -10 0 19 10 27 32 27 13 0 18 -6 16 -17z m184 -43 c-2
-17 -10 -30 -18 -30 -18 0 -18 10 2 38 20 29 21 28 16 -8z"/>
<path d="M1617 1128 c-20 -57 -39 -111 -42 -120 -6 -15 -1 -18 26 -18 l34 0
38 113 c21 61 37 115 37 120 0 4 -13 7 -29 7 -27 0 -30 -4 -64 -102z"/>
<path d="M1755 1213 c-9 -22 -75 -216 -75 -220 0 -2 34 -3 75 -3 72 0 76 1 85
26 14 35 15 34 -30 34 -22 0 -40 4 -40 8 0 5 11 42 25 82 14 40 25 77 25 82 0
16 -58 8 -65 -9z"/>
</g>
</svg>
