<?xml version="1.0" standalone="no"?>
<!DOCTYPE svg PUBLIC "-//W3C//DTD SVG 20010904//EN"
 "http://www.w3.org/TR/2001/REC-SVG-20010904/DTD/svg10.dtd">
<svg version="1.0" xmlns="http://www.w3.org/2000/svg"
 width="200.000000pt" height="200.000000pt" viewBox="0 0 200.000000 200.000000"
 preserveAspectRatio="xMidYMid meet">

<g transform="translate(0.000000,200.000000) scale(0.100000,-0.100000)"
fill="#000000" stroke="none">
<path d="M1448 1037 c-62 -63 -83 -77 -140 -96 -73 -24 -148 -82 -175 -135
-33 -66 -50 -76 -132 -77 -89 -2 -133 -10 -138 -25 -3 -8 9 -9 42 -1 51 12 69
1 59 -38 -2 -11 -11 -68 -18 -127 -8 -58 -17 -111 -20 -117 -4 -6 -23 -13 -44
-17 -85 -14 -142 -37 -222 -89 -46 -31 -90 -53 -96 -51 -9 4 -34 -32 -34 -49
0 -3 16 -5 35 -5 22 0 35 5 35 13 0 21 190 126 248 137 104 19 139 52 162 151
l14 64 7 -42 c11 -58 26 -83 52 -84 48 -2 92 3 102 12 6 6 -8 7 -37 3 -42 -6
-47 -4 -63 20 -39 58 8 175 78 195 26 7 27 9 9 10 -13 1 -36 -6 -52 -14 -17
-9 -30 -14 -30 -11 0 5 61 100 99 152 28 39 85 74 170 105 18 7 63 42 100 79
36 37 75 71 85 77 20 11 14 33 -9 33 -7 0 -47 -33 -87 -73z m-410 -379 c-57
-87 -58 -88 -51 -27 8 73 15 84 57 87 l35 3 -41 -63z m5 -63 c-3 -9 -8 -14
-10 -11 -3 3 -2 9 2 15 9 16 15 13 8 -4z"/>
<path d="M480 712 c-25 -16 -58 -48 -74 -71 -55 -79 -42 -204 24 -239 38 -20
200 -3 200 20 0 6 -10 7 -22 3 -13 -3 -44 -9 -69 -12 -41 -5 -50 -2 -80 25
-31 28 -34 35 -33 84 0 63 40 159 76 181 56 37 138 29 138 -13 0 -11 4 -20 9
-20 5 0 5 15 2 33 -7 31 -8 32 -66 35 -52 2 -66 -1 -105 -26z"/>
<path d="M1286 664 c-66 -45 -87 -138 -43 -190 20 -23 32 -27 70 -27 56 0 90
25 119 92 52 114 -42 195 -146 125z m105 -5 c18 -18 21 -30 17 -80 -3 -48 -10
-65 -32 -88 -37 -38 -60 -43 -91 -19 -43 33 -29 136 26 187 29 27 53 27 80 0z"/>
<path d="M730 661 c-53 -28 -80 -74 -80 -136 0 -73 23 -100 83 -99 80 2 137
65 137 154 0 33 -6 48 -29 71 -34 34 -62 36 -111 10z m89 -27 c27 -34 27 -79
-1 -134 -29 -58 -68 -79 -104 -56 -21 14 -24 24 -24 72 0 87 35 141 92 143 9
1 26 -11 37 -25z"/>
<path d="M1206 672 c6 -4 14 -14 17 -22 4 -10 6 -8 6 8 1 15 -5 22 -16 22 -11
0 -14 -3 -7 -8z"/>
</g>
</svg>
