<?xml version="1.0" standalone="no"?>
<!DOCTYPE svg PUBLIC "-//W3C//DTD SVG 20010904//EN"
 "http://www.w3.org/TR/2001/REC-SVG-20010904/DTD/svg10.dtd">
<svg version="1.0" xmlns="http://www.w3.org/2000/svg"
 width="240.000000pt" height="141.000000pt" viewBox="0 0 240.000000 141.000000"
 preserveAspectRatio="xMidYMid meet">

<g transform="translate(0.000000,141.000000) scale(0.100000,-0.100000)"
fill="#000000" stroke="none">
<path d="M872 1345 c0 -16 2 -22 5 -12 2 9 2 23 0 30 -3 6 -5 -1 -5 -18z"/>
<path d="M1036 1344 c-21 -21 -25 -34 -22 -62 6 -42 13 -50 53 -58 26 -5 36
-2 58 21 32 36 25 43 -13 15 -24 -18 -33 -20 -51 -11 -21 12 -25 21 -21 56 3
29 19 36 65 30 l40 -6 -24 21 c-31 27 -53 25 -85 -6z"/>
<path d="M1203 1353 c-30 -21 -31 -75 -2 -104 16 -16 29 -20 54 -16 18 3 38 0
44 -6 6 -6 11 -9 12 -6 0 2 3 35 6 73 5 66 4 68 -16 61 -12 -4 -21 -2 -21 4 0
16 -52 12 -77 -6z m75 -15 c13 -13 16 -47 6 -71 -11 -29 -84 -2 -84 30 0 44
49 70 78 41z"/>
<path d="M1367 1285 c-30 -62 -31 -65 -17 -65 5 0 19 18 30 40 24 48 41 57 69
38 19 -14 19 -14 0 -57 -10 -24 -19 -49 -19 -57 0 -26 15 -14 32 26 30 73 93
67 73 -7 -5 -15 -9 -31 -9 -35 -1 -3 -4 -10 -8 -14 -11 -10 -10 -24 0 -24 16
0 54 97 47 119 -7 22 -46 38 -64 26 -6 -3 -11 -2 -11 4 0 17 -41 50 -56 44 -8
-3 -14 0 -14 6 0 29 -29 5 -53 -44z"/>
<path d="M875 1285 c-34 -33 -32 -95 2 -95 9 0 13 6 10 13 -3 8 1 14 8 14 17
0 85 42 85 53 0 13 -42 40 -63 40 -10 0 -29 -11 -42 -25z m72 -12 c5 -15 -54
-46 -73 -39 -11 4 -10 11 8 31 23 26 58 30 65 8z"/>
<path d="M785 1230 c-3 -5 1 -26 10 -46 25 -59 20 -65 -30 -39 -24 13 -47 20
-50 15 -5 -8 98 -70 117 -70 12 0 10 15 -13 85 -22 67 -24 71 -34 55z"/>
<path d="M961 1211 c-6 -10 -8 -21 -5 -23 2 -3 -11 -4 -31 -2 -19 1 -37 -2
-41 -7 -3 -5 -2 -9 3 -10 4 0 19 -2 32 -3 25 -3 71 32 71 54 0 17 -19 11 -29
-9z"/>
<path d="M595 1110 c3 -5 8 -10 11 -10 2 0 4 5 4 10 0 6 -5 10 -11 10 -5 0 -7
-4 -4 -10z"/>
<path d="M1667 1113 c-4 -3 -7 -26 -7 -50 0 -31 -4 -43 -14 -43 -19 0 -31 20
-28 45 2 18 0 17 -10 -3 -10 -19 -8 -26 9 -44 14 -14 27 -18 42 -13 17 5 21
14 21 51 0 38 3 45 18 42 10 -2 16 -11 14 -21 -2 -9 2 -17 8 -17 14 0 13 33
-2 48 -13 13 -41 16 -51 5z"/>
<path d="M658 1083 c-23 -12 -28 -21 -28 -53 0 -21 7 -45 15 -54 53 -53 125
-11 113 65 -3 20 -6 17 -16 -18 -8 -27 -20 -44 -33 -48 -40 -13 -38 4 11 82 8
12 12 24 10 26 -14 13 -48 13 -72 0z m45 -9 c6 -6 -29 -70 -43 -79 -4 -3 -10
7 -13 21 -6 35 35 79 56 58z"/>
<path d="M1666 963 c-11 -11 -6 -23 9 -23 8 0 15 4 15 9 0 13 -16 22 -24 14z"/>
<path d="M589 933 c-18 -4 -41 -47 -32 -57 11 -11 21 -6 26 14 4 16 12 20 37
18 17 -1 34 -6 36 -10 7 -11 44 -10 44 1 0 7 -91 45 -94 40 -1 -1 -8 -3 -17
-6z"/>
<path d="M1734 921 c-40 -24 -45 -38 -28 -79 7 -18 13 -35 13 -38 0 -3 2 -8 5
-11 3 -4 6 -2 6 4 0 6 6 10 13 10 6 -1 31 4 54 11 41 12 42 13 36 50 -9 63
-48 84 -99 53z m60 -16 c26 -20 14 -63 -19 -71 -50 -12 -75 41 -33 70 27 19
28 19 52 1z"/>
<path d="M502 859 c2 -7 41 -25 86 -40 64 -22 82 -25 82 -14 0 8 -12 18 -27
21 -16 4 -37 12 -48 18 -11 6 -27 11 -35 12 -8 1 -26 4 -39 9 -17 5 -22 4 -19
-6z"/>
<path d="M544 595 c11 -140 69 -285 141 -355 19 -19 45 -45 58 -57 34 -33 142
-84 163 -76 12 4 15 3 10 -5 -4 -7 -1 -12 6 -13 7 0 22 -3 33 -6 54 -13 89
-17 195 -19 128 -2 231 13 312 47 29 13 55 25 58 28 3 4 21 15 40 25 84 46
191 161 174 187 -4 7 -3 9 3 6 13 -8 49 79 62 148 15 81 13 175 -5 175 -10 0
-14 -14 -14 -57 0 -73 -30 -190 -64 -247 -14 -24 -22 -47 -18 -51 4 -3 2 -5
-4 -3 -6 2 -27 -17 -48 -40 -20 -24 -36 -41 -36 -38 0 3 -25 -12 -56 -34 -52
-37 -122 -67 -239 -104 -73 -23 -260 -16 -339 13 -32 11 -63 18 -69 14 -5 -3
-7 -2 -4 4 3 5 -12 18 -35 28 -51 22 -148 113 -189 176 -44 70 -87 191 -95
270 -6 60 -9 69 -27 69 -19 0 -19 -4 -13 -85z"/>
<path d="M1680 669 c0 -5 5 -7 10 -4 6 3 10 8 10 11 0 2 -4 4 -10 4 -5 0 -10
-5 -10 -11z"/>
</g>
</svg>
