<?xml version="1.0" standalone="no"?>
<!DOCTYPE svg PUBLIC "-//W3C//DTD SVG 20010904//EN"
 "http://www.w3.org/TR/2001/REC-SVG-20010904/DTD/svg10.dtd">
<svg version="1.0" xmlns="http://www.w3.org/2000/svg"
 width="200.000000pt" height="200.000000pt" viewBox="0 0 200.000000 200.000000"
 preserveAspectRatio="xMidYMid meet">

<g transform="translate(0.000000,200.000000) scale(0.100000,-0.100000)"
fill="#000000" stroke="none">
<path d="M268 1353 c6 -2 18 -2 25 0 6 3 1 5 -13 5 -14 0 -19 -2 -12 -5z"/>
<path d="M135 1230 c-12 -19 2 -23 82 -24 66 -1 78 -4 81 -18 3 -15 -4 -18
-37 -18 -34 0 -41 -3 -41 -20 0 -17 7 -20 41 -20 33 0 40 -3 37 -17 -2 -11
-13 -19 -28 -20 -14 0 -31 -1 -37 -2 -7 -1 -13 -8 -13 -16 0 -11 11 -15 41
-15 33 0 40 -3 37 -17 -2 -13 -14 -19 -41 -21 -50 -4 -50 -30 0 -34 26 -2 39
-8 41 -20 2 -13 -5 -17 -35 -20 -27 -2 -39 -8 -41 -20 -3 -15 4 -18 37 -18 30
0 41 -4 41 -15 0 -11 -11 -15 -40 -15 l-39 0 -3 -57 c-3 -63 2 -58 -70 -62
-10 -1 -18 -8 -18 -16 0 -13 23 -15 150 -15 127 0 150 2 150 15 0 8 -8 15 -17
16 -10 1 -29 2 -43 2 l-25 2 -5 235 -5 235 -97 3 c-62 2 -99 -1 -103 -8z"/>
</g>
</svg>
