<?xml version="1.0" standalone="no"?>
<!DOCTYPE svg PUBLIC "-//W3C//DTD SVG 20010904//EN"
 "http://www.w3.org/TR/2001/REC-SVG-20010904/DTD/svg10.dtd">
<svg version="1.0" xmlns="http://www.w3.org/2000/svg"
 width="200.000000pt" height="200.000000pt" viewBox="0 0 200.000000 200.000000"
 preserveAspectRatio="xMidYMid meet">

<g transform="translate(0.000000,200.000000) scale(0.100000,-0.100000)"
fill="#000000" stroke="none">
<path d="M434 1352 c-37 -32 -70 -82 -56 -82 6 0 12 3 14 8 4 9 69 57 88 65
12 4 11 6 -2 6 -10 1 -18 6 -18 12 0 6 7 8 16 5 8 -3 12 -2 9 4 -9 15 -17 12
-51 -18z"/>
<path d="M343 1240 c-47 -24 -74 -50 -49 -46 9 1 18 5 22 9 8 8 84 -70 84 -87
0 -9 28 -15 91 -20 51 -4 105 -14 120 -22 27 -13 29 -13 29 5 0 24 -25 80 -47
107 -60 70 -171 94 -250 54z"/>
<path d="M1227 1204 c-4 -4 -7 -16 -7 -26 0 -14 8 -18 36 -18 31 0 35 3 32 23
-2 15 -11 23 -28 25 -14 2 -29 0 -33 -4z"/>
<path d="M706 1124 c-3 -9 -6 -49 -6 -90 l0 -74 36 0 35 0 -1 48 c-3 79 -1 92
15 92 15 0 20 -23 16 -69 -5 -50 7 -71 40 -71 l31 0 -4 60 c-3 42 0 64 8 71
24 19 34 -1 34 -67 l0 -64 30 0 30 0 0 74 c0 54 -4 79 -16 90 -18 19 -47 20
-76 5 -14 -8 -23 -8 -31 0 -15 15 -50 14 -66 -1 -11 -10 -14 -10 -18 0 -7 17
-50 15 -57 -4z"/>
<path d="M1010 1050 l0 -90 30 0 c30 0 30 1 30 54 0 63 7 86 25 86 18 0 25
-23 25 -86 0 -53 0 -54 30 -54 l30 0 0 78 c0 47 -5 83 -12 90 -15 15 -53 16
-79 2 -13 -7 -19 -7 -19 0 0 5 -13 10 -30 10 l-30 0 0 -90z"/>
<path d="M1220 1050 l0 -90 34 0 35 0 0 90 0 90 -34 0 -35 0 0 -90z"/>
<path d="M1330 1069 c0 -39 5 -79 10 -90 12 -21 59 -26 77 -8 8 8 13 8 17 0 4
-6 20 -11 37 -11 l29 0 0 91 0 90 -32 -3 c-33 -3 -33 -3 -38 -68 -4 -49 -9
-65 -20 -65 -12 0 -16 15 -18 68 -3 67 -3 67 -32 67 l-30 0 0 -71z"/>
<path d="M1540 1050 l0 -90 30 0 c29 0 29 0 32 67 2 55 6 68 21 71 15 3 17 -5
17 -67 l0 -71 30 0 c29 0 29 0 32 67 2 55 6 68 21 71 15 3 17 -5 17 -67 l0
-71 30 0 30 0 0 78 c0 47 -5 83 -12 90 -15 15 -61 15 -76 0 -9 -9 -15 -9 -24
0 -15 15 -61 15 -76 0 -9 -9 -12 -9 -12 0 0 7 -13 12 -30 12 l-30 0 0 -90z"/>
<path d="M362 1028 c-25 -25 -91 -30 -117 -8 -18 15 -18 8 -5 -41 40 -144 272
-190 318 -63 23 62 11 89 -45 108 -91 28 -125 29 -151 4z"/>
<path d="M712 878 c2 -12 9 -23 16 -24 7 -1 8 0 2 3 -13 6 -13 33 0 33 6 0 10
-5 10 -11 0 -5 5 -7 10 -4 15 9 2 25 -21 25 -15 0 -20 -6 -17 -22z"/>
<path d="M910 891 c0 -7 -7 -11 -14 -8 -10 4 -13 1 -9 -9 3 -7 9 -14 13 -14
10 0 22 31 15 38 -3 3 -5 0 -5 -7z"/>
<path d="M1036 891 c-4 -5 3 -7 14 -4 23 6 26 13 6 13 -8 0 -17 -4 -20 -9z"/>
<path d="M1130 883 c0 -15 2 -15 9 -4 8 13 12 13 27 0 15 -12 17 -12 12 1 -7
23 -48 26 -48 3z"/>
<path d="M1037 859 c7 -7 15 -10 18 -7 3 3 -2 9 -12 12 -14 6 -15 5 -6 -5z"/>
<path d="M236 785 c15 -67 60 -108 118 -108 46 0 126 38 126 60 0 7 6 10 14 7
8 -3 16 -1 20 4 8 14 -30 7 -50 -9 -16 -13 -17 -12 -11 5 7 17 6 18 -16 3 -62
-40 -134 -29 -167 25 -11 18 -20 29 -20 23 0 -5 -5 -3 -10 5 -8 11 -9 7 -4
-15z"/>
<path d="M1406 734 c-4 -10 3 -18 24 -26 38 -13 39 -28 3 -29 -16 0 -22 -3
-15 -6 18 -7 62 5 62 18 0 6 -13 16 -30 22 -36 14 -38 24 -7 30 20 4 19 4 -4
6 -16 0 -29 -5 -33 -15z"/>
<path d="M1510 711 c0 -23 2 -41 4 -41 8 0 12 71 4 76 -4 3 -8 -13 -8 -35z"/>
<path d="M1555 741 c12 -5 23 -22 27 -42 6 -33 6 -33 5 6 -2 35 -5 40 -27 42
-22 2 -23 2 -5 -6z"/>
<path d="M1620 710 c0 -39 1 -40 33 -39 29 1 30 2 7 8 -17 5 -24 14 -24 31 0
17 7 26 24 31 23 6 22 7 -7 8 -32 1 -33 0 -33 -39z"/>
<path d="M1710 708 c0 -45 9 -47 14 -2 2 20 10 31 27 35 21 6 20 7 -8 8 -32 1
-33 0 -33 -41z"/>
<path d="M831 694 c0 -11 3 -14 6 -6 3 7 2 16 -1 19 -3 4 -6 -2 -5 -13z"/>
<path d="M856 695 c-3 -8 -1 -15 4 -15 6 0 10 7 10 15 0 8 -2 15 -4 15 -2 0
-6 -7 -10 -15z"/>
<path d="M945 700 c-15 -24 16 -38 45 -20 12 7 12 12 2 22 -9 9 -12 9 -12 -5
0 -9 -7 -17 -16 -17 -10 0 -14 6 -10 15 6 17 0 20 -9 5z"/>
<path d="M1064 690 c2 -23 33 -24 46 -1 7 14 7 21 0 21 -5 0 -10 -7 -10 -15 0
-18 -27 -20 -33 -2 -2 7 -3 6 -3 -3z"/>
<path d="M1191 694 c0 -11 3 -14 6 -6 3 7 2 16 -1 19 -3 4 -6 -2 -5 -13z"/>
</g>
</svg>
