<?xml version="1.0" standalone="no"?>
<!DOCTYPE svg PUBLIC "-//W3C//DTD SVG 20010904//EN"
 "http://www.w3.org/TR/2001/REC-SVG-20010904/DTD/svg10.dtd">
<svg version="1.0" xmlns="http://www.w3.org/2000/svg"
 width="225.000000pt" height="225.000000pt" viewBox="0 0 225.000000 225.000000"
 preserveAspectRatio="xMidYMid meet">

<g transform="translate(0.000000,225.000000) scale(0.100000,-0.100000)"
fill="#000000" stroke="none">
<path d="M397 1233 c-11 -10 -8 -111 3 -118 6 -4 10 5 10 19 0 15 6 26 14 26
22 0 39 28 32 55 -5 18 -13 25 -30 25 -12 0 -26 -3 -29 -7z m43 -33 c0 -11 -7
-20 -15 -20 -8 0 -15 9 -15 20 0 11 7 20 15 20 8 0 15 -9 15 -20z"/>
<path d="M1173 1175 c0 -38 2 -55 4 -37 3 24 9 32 24 32 14 0 19 -7 19 -30 0
-16 5 -30 10 -30 6 0 10 28 10 65 0 37 -4 65 -10 65 -5 0 -10 -11 -10 -25 0
-37 -37 -35 -43 3 -2 15 -4 -4 -4 -43z"/>
<path d="M1470 1175 c0 -37 4 -65 10 -65 6 0 10 11 10 25 0 15 6 25 15 25 19
0 38 36 30 60 -4 14 -15 20 -36 20 l-29 0 0 -65z m50 25 c0 -11 -7 -20 -15
-20 -8 0 -15 9 -15 20 0 11 7 20 15 20 8 0 15 -9 15 -20z"/>
<path d="M1860 1180 c0 -27 4 -50 10 -50 5 0 7 7 4 15 -4 10 3 18 20 25 19 7
26 17 26 35 0 21 -5 25 -30 25 -29 0 -30 -1 -30 -50z m46 29 c10 -17 -13 -36
-27 -22 -12 12 -4 33 11 33 5 0 12 -5 16 -11z"/>
<path d="M1940 1180 c0 -27 5 -50 10 -50 6 0 10 11 10 25 0 16 6 25 15 25 9 0
15 -9 15 -25 0 -14 5 -25 10 -25 6 0 10 23 10 50 0 28 -4 50 -10 50 -5 0 -10
-9 -10 -20 0 -11 -7 -20 -15 -20 -8 0 -15 9 -15 20 0 11 -4 20 -10 20 -5 0
-10 -22 -10 -50z"/>
<path d="M2031 1178 c1 -29 3 -45 6 -35 3 10 16 22 29 27 17 7 24 17 24 35 0
21 -5 25 -30 25 -30 0 -30 -1 -29 -52z m45 31 c3 -6 1 -16 -5 -22 -9 -9 -14
-8 -21 3 -9 15 -4 30 10 30 5 0 12 -5 16 -11z"/>
<path d="M2115 1170 c0 -32 3 -53 7 -47 10 16 10 95 1 100 -5 3 -8 -21 -8 -53z"/>
<path d="M1830 1174 c0 -21 4 -45 9 -53 5 -8 7 5 4 35 -7 61 -13 70 -13 18z"/>
<path d="M482 1153 c-2 -35 1 -43 16 -43 11 0 13 3 5 8 -6 4 -13 23 -16 42 -4
33 -4 33 -5 -7z"/>
<path d="M543 1170 c3 -11 1 -20 -4 -20 -5 0 -8 -10 -8 -22 1 -17 2 -19 6 -5
5 19 23 24 23 5 0 -6 2 -9 5 -6 9 8 -7 68 -17 68 -6 0 -8 -9 -5 -20z"/>
<path d="M592 1150 c0 -27 3 -35 5 -20 l5 24 14 -24 c13 -24 13 -23 12 20 0
25 -2 37 -5 27 -5 -18 -5 -18 -19 0 -12 16 -13 13 -12 -27z"/>
<path d="M658 1183 c6 -2 18 -2 25 0 6 3 1 5 -13 5 -14 0 -19 -2 -12 -5z"/>
<path d="M717 1183 c-3 -5 -8 -24 -11 -43 -6 -29 -5 -32 5 -16 9 15 13 16 20
5 6 -10 9 -8 9 9 0 13 -4 21 -9 18 -5 -4 -7 3 -4 14 5 19 -1 28 -10 13z"/>
<path d="M757 1182 c6 -4 13 -23 16 -42 l4 -35 1 37 c1 20 8 39 15 41 6 3 -1
6 -18 6 -17 0 -25 -3 -18 -7z"/>
<path d="M813 1150 c0 -25 2 -35 4 -22 2 12 2 32 0 45 -2 12 -4 2 -4 -23z"/>
<path d="M844 1165 c-4 -18 -1 -32 10 -43 21 -21 39 -4 34 34 -4 39 -35 45
-44 9z m36 -9 c0 -14 -4 -27 -9 -31 -12 -7 -25 31 -16 45 11 18 25 10 25 -14z"/>
<path d="M912 1150 c0 -27 3 -35 5 -20 l5 24 14 -24 c13 -24 13 -23 12 20 0
25 -2 37 -5 27 -5 -18 -5 -18 -19 0 -12 16 -13 13 -12 -27z"/>
<path d="M1010 1150 c0 -46 25 -57 36 -15 8 32 -1 55 -21 55 -11 0 -15 -11
-15 -40z m30 6 c0 -14 -4 -28 -10 -31 -6 -4 -10 7 -10 24 0 17 5 31 10 31 6 0
10 -11 10 -24z"/>
<path d="M1073 1155 c2 -28 6 -40 17 -40 11 0 15 12 16 40 l2 40 -7 -40 c-7
-40 -15 -35 -25 15 -2 14 -3 7 -3 -15z"/>
<path d="M1265 1154 c-3 -20 -4 -39 -1 -42 3 -3 6 2 6 11 0 10 5 17 10 17 6 0
10 -5 10 -12 0 -6 2 -9 5 -6 7 7 -6 68 -15 68 -4 0 -11 -16 -15 -36z"/>
<path d="M1323 1155 c2 -28 6 -40 17 -40 11 0 15 12 16 40 l2 40 -7 -40 c-7
-40 -15 -35 -25 15 -2 14 -3 7 -3 -15z"/>
<path d="M1388 1183 c6 -2 18 -2 25 0 6 3 1 5 -13 5 -14 0 -19 -2 -12 -5z"/>
<path d="M1560 1150 c0 -35 3 -40 23 -39 16 1 18 2 5 6 -10 2 -18 11 -18 18 0
7 8 16 18 18 16 4 16 5 0 6 -10 0 -18 5 -18 10 0 5 8 12 18 14 13 4 11 5 -5 6
-20 1 -23 -4 -23 -39z"/>
<path d="M1621 1150 c1 -42 1 -43 9 -16 6 17 5 36 0 45 -7 11 -9 3 -9 -29z"/>
<path d="M1647 1163 c-3 -16 -1 -35 4 -43 6 -10 8 -2 9 28 0 48 -5 55 -13 15z"/>
<path d="M1702 1163 c-1 -17 -8 -33 -14 -36 -7 -2 -10 -8 -5 -12 14 -16 28 12
24 46 l-4 34 -1 -32z"/>
<path d="M1736 1175 c-9 -25 -7 -47 3 -40 6 3 15 -3 21 -12 9 -14 10 -11 4 17
-8 43 -19 57 -28 35z"/>
<path d="M413 1073 c-7 -3 -13 -20 -13 -39 0 -34 0 -34 47 -34 52 0 54 8 2 13
-25 3 -35 10 -37 25 -2 15 3 21 20 24 16 2 19 5 8 9 -8 3 -21 4 -27 2z"/>
<path d="M1105 1069 c-15 -6 -11 -8 18 -8 20 -1 37 1 37 3 0 9 -37 12 -55 5z"/>
<path d="M1405 1069 c-29 -5 -17 -7 44 -8 46 0 81 2 78 5 -9 9 -73 10 -122 3z"/>
<path d="M1658 1073 c-11 -3 -18 -13 -17 -26 1 -17 2 -18 6 -4 2 9 11 17 19
17 8 0 14 5 14 10 0 6 -1 9 -2 9 -2 -1 -11 -3 -20 -6z"/>
<path d="M478 1063 c12 -2 30 -2 40 0 9 3 -1 5 -23 4 -22 0 -30 -2 -17 -4z"/>
<path d="M576 1055 c4 -8 8 -15 10 -15 2 0 4 7 4 15 0 8 -4 15 -10 15 -5 0 -7
-7 -4 -15z"/>
<path d="M622 1043 c3 -26 0 -28 -29 -28 -18 0 -33 -3 -33 -6 0 -3 45 -6 100
-6 58 0 100 4 100 10 0 5 -9 7 -19 4 -16 -4 -18 -1 -12 17 7 17 19 22 67 27
45 4 32 6 -59 7 l-118 2 3 -27z m98 -2 c0 -15 -9 -20 -39 -23 -35 -3 -40 -1
-44 19 -4 21 -1 23 39 23 37 0 44 -3 44 -19z"/>
<path d="M888 1063 c6 -2 18 -2 25 0 6 3 1 5 -13 5 -14 0 -19 -2 -12 -5z"/>
<path d="M938 1063 c6 -2 18 -2 25 0 6 3 1 5 -13 5 -14 0 -19 -2 -12 -5z"/>
<path d="M974 1048 c-9 -29 -26 -41 -36 -25 -6 8 -10 9 -15 1 -5 -5 -40 -10
-80 -9 -40 0 -73 -3 -73 -7 0 -6 206 -5 217 1 2 0 2 11 0 23 -1 15 5 24 23 29
l25 7 -27 1 c-19 1 -29 -5 -34 -21z"/>
<path d="M1175 1062 c6 -7 107 -3 114 4 3 3 -23 4 -57 3 -34 -1 -60 -4 -57 -7z"/>
<path d="M1308 1063 c7 -3 16 -2 19 1 4 3 -2 6 -13 5 -11 0 -14 -3 -6 -6z"/>
<path d="M1568 1063 c7 -3 16 -2 19 1 4 3 -2 6 -13 5 -11 0 -14 -3 -6 -6z"/>
<path d="M1608 1063 c7 -3 16 -2 19 1 4 3 -2 6 -13 5 -11 0 -14 -3 -6 -6z"/>
<path d="M1694 1055 c3 -21 16 -31 16 -12 0 9 -4 18 -9 21 -5 4 -8 -1 -7 -9z"/>
<path d="M1728 1063 c7 -3 16 -2 19 1 4 3 -2 6 -13 5 -11 0 -14 -3 -6 -6z"/>
<path d="M1757 1057 c-3 -8 0 -20 6 -27 10 -10 7 -12 -10 -7 -13 3 -23 2 -23
-3 0 -4 -11 -6 -25 -5 -14 2 -25 0 -25 -5 0 -4 101 -8 225 -7 l225 0 -1 36
c-1 35 -2 35 -8 7 l-6 -29 -122 -1 c-94 -1 -123 1 -123 11 0 7 0 16 -1 21 0 4
10 10 23 14 13 3 -5 6 -44 7 -48 1 -68 -3 -68 -11 0 -10 -2 -10 -9 0 -7 11 -9
11 -14 -1z m100 -14 c0 -10 -4 -21 -9 -24 -14 -9 -68 3 -68 15 0 20 11 26 45
26 23 0 32 -5 32 -17z"/>
<path d="M1920 1053 c0 -12 3 -14 8 -7 4 7 16 14 27 17 15 4 14 5 -7 6 -21 1
-28 -4 -28 -16z"/>
<path d="M2007 1063 c18 -2 50 -2 70 0 21 2 7 4 -32 4 -38 0 -55 -2 -38 -4z"/>
<path d="M1330 1040 c0 -5 5 -10 10 -10 6 0 10 5 10 10 0 6 -4 10 -10 10 -5 0
-10 -4 -10 -10z"/>
<path d="M1123 1022 c-13 -2 -23 -7 -23 -11 0 -5 56 -8 125 -7 69 0 125 4 125
8 0 4 -42 6 -93 6 -52 -1 -98 1 -103 3 -5 3 -19 3 -31 1z"/>
<path d="M1367 1017 c-4 -10 5 -14 34 -14 21 0 36 4 33 9 -3 5 -13 7 -21 4 -9
-4 -21 -2 -28 4 -9 8 -14 7 -18 -3z"/>
<path d="M505 1010 c-3 -5 3 -10 14 -10 11 0 23 5 26 10 3 6 -3 10 -14 10 -11
0 -23 -4 -26 -10z"/>
<path d="M1006 1008 c5 -8 73 -2 82 6 3 3 -16 5 -41 3 -25 -1 -43 -5 -41 -9z"/>
<path d="M1450 1009 c0 -3 50 -6 110 -6 64 -1 110 3 110 9 0 5 -45 8 -110 6
-60 -1 -110 -5 -110 -9z"/>
</g>
</svg>
