<?xml version="1.0" standalone="no"?>
<!DOCTYPE svg PUBLIC "-//W3C//DTD SVG 20010904//EN"
 "http://www.w3.org/TR/2001/REC-SVG-20010904/DTD/svg10.dtd">
<svg version="1.0" xmlns="http://www.w3.org/2000/svg"
 width="225.000000pt" height="225.000000pt" viewBox="0 0 225.000000 225.000000"
 preserveAspectRatio="xMidYMid meet">

<g transform="translate(0.000000,225.000000) scale(0.100000,-0.100000)"
fill="#000000" stroke="none">
<path d="M662 1902 c2 -4 19 -33 38 -65 l35 -57 77 0 78 0 0 -275 0 -275 -29
0 c-16 0 -35 -2 -43 -5 -25 -10 -49 20 -63 80 -9 39 -22 67 -37 80 l-24 20 37
35 c62 59 65 150 6 217 -49 56 -77 63 -247 63 l-150 0 0 -300 0 -300 70 0 70
0 0 120 0 120 45 0 c61 0 79 -21 95 -106 14 -78 32 -119 55 -128 9 -3 95 -6
191 -6 l174 0 0 330 0 330 351 0 c290 0 353 -2 365 -14 17 -17 18 -36 3 -36
-8 0 -10 -12 -6 -34 8 -47 -41 -96 -96 -96 -20 0 -37 -4 -37 -10 0 -5 5 -10
10 -10 6 0 10 -30 10 -70 0 -40 -4 -70 -10 -70 -5 0 -10 -4 -10 -10 0 -6 59
-10 158 -10 l157 0 0 90 0 90 -34 0 c-22 0 -44 8 -60 23 l-26 22 19 -22 19
-23 -73 0 -74 0 35 36 c22 22 40 33 52 30 14 -3 16 -2 7 9 -6 8 -18 11 -26 8
-9 -3 -14 2 -14 16 0 12 7 24 15 27 8 4 15 10 15 16 0 11 25 38 35 38 7 0 29
26 78 92 l29 38 -637 0 c-350 0 -635 -3 -633 -8z m-42 -322 c26 -26 25 -68 -2
-97 -17 -18 -32 -23 -75 -23 l-53 0 0 70 0 70 55 0 c42 0 60 -5 75 -20z m1070
-70 c0 -56 -3 -70 -15 -70 -12 0 -15 14 -15 70 0 56 3 70 15 70 12 0 15 -14
15 -70z m80 -1 c0 -67 -1 -70 -22 -67 -20 3 -23 10 -26 57 -4 66 1 81 28 81
18 0 20 -6 20 -71z m70 1 c0 -63 -2 -70 -20 -70 -18 0 -20 7 -20 70 0 63 2 70
20 70 18 0 20 -7 20 -70z m65 0 c0 -54 -3 -65 -17 -68 -16 -3 -18 5 -18 68 0
63 2 71 18 68 14 -3 17 -14 17 -68z"/>
<path d="M1345 1731 c-92 -24 -163 -80 -204 -163 -27 -52 -31 -72 -31 -137 0
-173 115 -298 285 -309 64 -4 79 -1 158 32 48 20 103 36 122 36 19 0 68 -13
110 -30 77 -30 101 -35 129 -24 27 10 18 24 -15 24 -17 0 -62 14 -99 30 -97
43 -117 45 -188 21 -34 -12 -63 -21 -66 -21 -3 0 -2 17 1 37 l6 36 -24 -16
c-29 -21 -116 -23 -162 -3 -61 25 -117 111 -117 181 0 66 51 150 111 181 37
19 142 18 179 -1 l30 -16 0 55 c0 54 0 54 -41 70 -48 20 -142 28 -184 17z"/>
<path d="M1623 1329 c-29 -11 -53 -27 -53 -34 0 -11 9 -10 43 5 60 28 114 25
202 -10 82 -32 117 -37 133 -17 8 9 2 12 -26 13 -21 1 -66 14 -102 28 -90 37
-134 40 -197 15z"/>
<path d="M1332 1038 c-7 -7 -12 -25 -12 -40 0 -21 6 -29 24 -34 14 -3 30 -3
35 1 17 10 13 35 -5 35 -8 0 -12 -4 -9 -10 3 -5 -1 -10 -9 -10 -20 0 -28 14
-20 35 5 12 14 15 33 11 25 -6 25 -6 7 9 -24 18 -29 18 -44 3z"/>
<path d="M398 1023 c-5 -23 1 -53 11 -53 4 0 5 14 3 31 -4 30 -3 32 22 25 18
-4 25 -3 21 4 -10 17 -52 12 -57 -7z"/>
<path d="M487 1033 c-10 -9 -9 -51 1 -57 5 -3 6 8 4 25 -4 25 -1 29 18 29 19
0 22 -4 18 -30 -5 -32 6 -41 16 -14 11 27 -3 54 -28 54 -12 0 -26 -3 -29 -7z"/>
<path d="M571 1003 c1 -33 2 -35 8 -13 l7 25 12 -22 c19 -34 32 -28 31 15 -1
23 -3 28 -6 15 -5 -28 -23 -30 -30 -3 -9 34 -23 22 -22 -17z"/>
<path d="M653 1033 c11 -3 18 -15 18 -36 l2 -32 4 30 c3 16 10 33 16 37 7 4
-4 7 -23 7 -19 -1 -27 -3 -17 -6z"/>
<path d="M720 1028 c0 -7 -3 -22 -6 -33 -4 -17 0 -20 25 -20 17 0 31 0 31 1 0
1 -5 15 -11 33 -11 30 -39 44 -39 19z m30 -24 c0 -8 -4 -14 -10 -14 -5 0 -10
9 -10 21 0 11 5 17 10 14 6 -3 10 -13 10 -21z"/>
<path d="M793 1005 c0 -22 2 -30 4 -17 2 12 2 30 0 40 -3 9 -5 -1 -4 -23z"/>
<path d="M831 1005 c1 -33 2 -36 8 -15 l7 25 12 -22 c19 -34 32 -28 31 15 -1
23 -3 28 -6 15 -2 -13 -7 -23 -10 -23 -2 0 -13 10 -24 23 l-18 22 0 -40z"/>
<path d="M910 1005 c0 -19 4 -35 10 -35 5 0 7 6 4 14 -3 8 2 16 13 19 16 4 16
5 1 6 -26 2 -22 19 5 24 19 4 18 4 -5 6 -26 1 -28 -2 -28 -34z"/>
<path d="M982 1003 c1 -37 1 -37 5 -5 3 19 10 32 19 32 17 0 18 -12 4 -26 -8
-8 -7 -14 2 -22 10 -8 14 -3 15 24 3 30 0 34 -22 34 -23 0 -25 -4 -23 -37z"/>
<path d="M1181 998 c1 -24 3 -35 6 -25 6 21 19 22 27 2 3 -8 10 -15 16 -15 7
0 8 6 1 18 -7 13 -7 22 1 30 15 15 1 32 -28 32 -22 0 -24 -4 -23 -42z m39 22
c0 -5 -7 -10 -15 -10 -8 0 -15 5 -15 10 0 6 7 10 15 10 8 0 15 -4 15 -10z"/>
<path d="M1250 1000 c0 -38 2 -40 30 -40 17 0 30 5 30 10 0 6 -9 10 -20 10
-25 0 -26 17 -2 23 16 4 16 5 0 6 -26 2 -22 19 5 24 16 3 13 5 -10 6 -32 1
-33 0 -33 -39z"/>
<path d="M1400 1006 c0 -19 5 -38 10 -41 6 -4 10 10 10 34 0 23 -4 41 -10 41
-5 0 -10 -15 -10 -34z"/>
<path d="M1440 1000 c0 -36 3 -40 25 -40 14 0 25 5 25 10 0 6 -7 10 -15 10
-21 0 -19 18 3 23 16 4 16 5 0 6 -10 0 -18 5 -18 10 0 5 8 12 18 14 10 3 6 5
-10 6 -26 1 -28 -2 -28 -39z"/>
<path d="M1540 1001 c0 -36 3 -41 24 -41 30 0 49 22 44 52 -2 18 -10 24 -35
26 -32 3 -33 2 -33 -37z m48 1 c2 -15 -2 -22 -12 -22 -11 0 -16 9 -16 26 0 31
23 28 28 -4z"/>
<path d="M1622 1009 c4 -43 34 -61 54 -35 16 23 19 66 4 66 -5 0 -10 -13 -10
-30 0 -20 -5 -30 -15 -30 -10 0 -15 10 -15 30 0 17 -5 30 -11 30 -6 0 -9 -14
-7 -31z"/>
<path d="M477 922 c6 -4 13 -23 16 -42 l4 -35 1 37 c1 20 8 39 15 41 6 3 -1 6
-18 6 -17 0 -25 -3 -18 -7z"/>
<path d="M540 890 c0 -37 2 -40 28 -39 23 2 24 2 5 6 -27 5 -31 30 -5 36 16 4
16 5 0 6 -26 2 -22 19 5 24 19 4 18 4 -5 6 -26 1 -28 -2 -28 -39z"/>
<path d="M600 891 c0 -23 5 -41 10 -41 6 0 10 16 10 35 0 19 5 35 11 35 6 0 9
-9 6 -20 -3 -10 0 -26 7 -35 9 -12 11 -8 11 22 0 34 -3 38 -28 41 -25 3 -27 1
-27 -37z"/>
<path d="M681 888 c1 -28 3 -34 6 -18 3 14 10 28 15 31 12 8 2 29 -13 29 -5 0
-8 -19 -8 -42z"/>
<path d="M736 914 c-8 -22 -8 -26 4 -19 6 4 10 -5 10 -19 0 -14 5 -26 11 -26
6 0 8 7 5 16 -3 9 -6 27 -6 40 0 27 -15 32 -24 8z"/>
<path d="M793 890 c0 -25 2 -35 4 -22 2 12 2 32 0 45 -2 12 -4 2 -4 -23z"/>
<path d="M820 891 c0 -44 19 -58 22 -16 0 14 1 30 2 37 1 6 -5 13 -11 16 -9 2
-13 -9 -13 -37z"/>
<path d="M870 903 c0 -22 -2 -25 -10 -13 -13 20 -13 4 1 -21 5 -11 14 -17 20
-14 12 8 12 75 -1 75 -5 0 -10 -12 -10 -27z"/>
<path d="M919 903 c-5 -16 -12 -34 -14 -40 -2 -7 0 -13 4 -13 5 0 11 6 14 13
3 9 9 9 27 -1 20 -13 22 -12 16 3 -3 9 -9 28 -12 41 -8 32 -22 30 -35 -3z m31
-14 c0 -5 -7 -9 -15 -9 -9 0 -12 6 -9 15 6 15 24 11 24 -6z"/>
<path d="M992 893 c-2 -41 -1 -43 26 -42 22 1 23 2 5 6 -17 3 -23 13 -26 41
l-4 37 -1 -42z"/>
<path d="M1178 923 c6 -2 12 -17 12 -33 0 -16 3 -35 6 -44 11 -30 20 -16 16
25 -3 28 0 44 9 50 9 6 2 8 -21 8 -19 0 -29 -3 -22 -6z"/>
<path d="M1240 890 c0 -38 2 -40 31 -40 17 0 28 4 24 10 -3 6 -13 10 -21 10
-20 0 -18 18 4 23 16 4 16 5 0 6 -10 0 -18 5 -18 10 0 5 8 12 18 14 10 3 6 5
-10 6 -26 1 -28 -2 -28 -39z"/>
<path d="M1310 891 c0 -39 20 -61 20 -23 1 16 1 16 14 0 19 -26 23 -22 22 20
-1 33 -4 37 -28 40 -27 3 -28 1 -28 -37z m40 19 c0 -5 -4 -10 -10 -10 -5 0
-10 5 -10 10 0 6 5 10 10 10 6 0 10 -4 10 -10z"/>
<path d="M1390 906 c0 -13 -3 -31 -6 -40 -3 -9 -1 -16 5 -16 6 0 11 10 11 23
1 21 1 22 15 3 15 -20 15 -20 30 0 14 19 14 18 15 -3 0 -13 3 -23 8 -23 4 0 6
18 4 40 -5 45 -16 51 -33 18 l-12 -22 -8 22 c-11 29 -29 28 -29 -2z"/>
<path d="M1490 890 c0 -22 5 -40 10 -40 6 0 10 18 10 40 0 22 -4 40 -10 40 -5
0 -10 -18 -10 -40z"/>
<path d="M1530 890 c0 -41 19 -58 21 -17 l0 22 11 -22 c18 -37 38 -28 38 17 0
41 -20 58 -21 18 l0 -23 -16 23 c-23 33 -33 27 -33 -18z"/>
<path d="M1620 894 c-7 -19 -9 -38 -5 -42 4 -4 10 -1 12 6 3 6 11 12 18 12 7
0 15 -6 18 -12 11 -31 15 2 5 35 -14 47 -33 47 -48 1z m27 -6 c-3 -8 -6 -5 -6
6 -1 11 2 17 5 13 3 -3 4 -12 1 -19z"/>
<path d="M1690 890 c0 -38 2 -40 31 -40 17 0 28 4 24 10 -3 6 -13 10 -21 10
-9 0 -14 11 -14 30 0 17 -4 30 -10 30 -5 0 -10 -18 -10 -40z"/>
<path d="M710 881 c0 -5 5 -13 10 -16 6 -3 10 -2 10 4 0 5 -4 13 -10 16 -5 3
-10 2 -10 -4z"/>
<path d="M235 784 c-8 -43 1 -58 11 -18 l7 28 9 -25 9 -24 13 24 13 24 11 -29
c8 -22 11 -24 11 -9 1 27 -10 65 -18 65 -4 0 -12 -12 -18 -27 l-10 -28 -8 28
c-10 37 -21 34 -30 -9z"/>
<path d="M357 813 c-3 -5 -7 -24 -11 -43 -3 -19 -3 -29 0 -22 3 6 14 12 24 12
10 0 21 -6 23 -12 4 -9 6 -8 6 2 0 8 -4 22 -9 30 -6 10 -10 11 -10 3 0 -7 -4
-13 -10 -13 -5 0 -10 7 -10 15 0 8 5 15 10 15 6 0 10 5 10 10 0 12 -17 13 -23
3z"/>
<path d="M421 778 c1 -40 2 -41 8 -13 l8 30 13 -27 c19 -40 30 -34 29 15 -1
39 -2 40 -8 12 l-8 -30 -13 28 c-19 39 -30 33 -29 -15z"/>
<path d="M510 784 c-7 -19 -9 -38 -6 -41 3 -4 6 -1 6 5 0 16 37 15 44 0 3 -7
3 3 0 22 -11 63 -27 68 -44 14z m30 1 c0 -8 -4 -15 -10 -15 -5 0 -10 7 -10 15
0 8 5 15 10 15 6 0 10 -7 10 -15z"/>
<path d="M587 813 c-4 -3 -7 -19 -7 -34 0 -28 28 -47 50 -34 13 8 13 35 0 35
-5 0 -7 -7 -3 -16 4 -12 1 -15 -13 -12 -13 2 -19 12 -19 28 0 20 4 25 23 23
13 -2 21 1 17 7 -7 11 -38 13 -48 3z"/>
<path d="M660 780 c0 -37 2 -40 28 -39 16 1 20 3 10 6 -10 2 -18 11 -18 18 0
7 8 16 18 18 16 4 16 5 0 6 -10 0 -18 5 -18 10 0 5 8 12 18 14 10 3 6 5 -10 6
-26 1 -28 -2 -28 -39z"/>
<path d="M737 813 c-4 -3 -6 -22 -6 -42 l1 -36 8 30 c7 29 8 29 15 8 4 -13 11
-23 15 -23 4 0 12 10 18 23 10 22 11 22 11 -5 1 -16 4 -28 9 -28 4 0 6 18 4
40 -5 47 -16 51 -30 13 l-10 -28 -11 28 c-11 29 -14 31 -24 20z"/>
<path d="M840 780 c0 -37 2 -40 28 -39 23 2 24 2 5 6 -27 5 -31 30 -5 36 16 4
16 5 0 6 -10 0 -18 5 -18 10 0 5 8 12 18 14 13 4 11 5 -5 6 -20 1 -23 -4 -23
-39z"/>
<path d="M900 780 c0 -22 5 -40 10 -40 6 0 8 11 4 25 -4 15 -2 25 5 25 6 0 11
-4 11 -8 0 -5 7 -17 15 -28 13 -18 14 -16 13 26 0 38 -1 40 -7 16 l-6 -30 -12
27 c-18 39 -33 33 -33 -13z"/>
<path d="M987 812 c6 -4 13 -23 16 -42 l4 -35 1 37 c2 25 7 38 20 41 9 3 1 5
-18 6 -19 0 -30 -3 -23 -7z"/>
<path d="M1182 783 c-13 -42 -9 -51 14 -33 13 12 17 11 24 0 16 -25 22 -2 10
34 -15 46 -34 46 -48 -1z"/>
<path d="M1294 806 c-3 -8 -4 -25 -2 -38 2 -18 10 -24 36 -26 19 -2 32 1 32 8
0 7 -8 9 -20 5 -23 -7 -36 14 -26 41 5 13 9 14 21 4 17 -14 31 -8 20 9 -9 16
-55 13 -61 -3z"/>
<path d="M1380 805 c-26 -32 13 -81 48 -59 34 22 22 74 -18 74 -10 0 -23 -7
-30 -15z m45 -25 c0 -13 -6 -25 -12 -27 -16 -6 -27 21 -19 43 9 23 31 11 31
-16z"/>
<path d="M1460 780 c0 -22 5 -40 10 -40 6 0 10 10 10 22 l0 22 16 -22 c23 -33
34 -27 34 18 0 41 -20 58 -21 18 l0 -23 -16 23 c-23 33 -33 27 -33 -18z"/>
<path d="M1548 813 c6 -2 12 -20 12 -39 0 -19 5 -34 10 -34 6 0 10 15 10 34 0
19 6 37 13 39 6 3 -4 5 -23 5 -19 0 -29 -2 -22 -5z"/>
<path d="M1610 780 c0 -37 2 -40 28 -39 16 1 20 3 10 6 -22 5 -24 23 -3 23 8
0 15 5 15 10 0 6 -7 10 -15 10 -21 0 -19 18 3 23 10 3 6 5 -10 6 -26 1 -28 -2
-28 -39z"/>
<path d="M1681 778 c1 -24 4 -33 6 -20 5 27 20 29 28 2 11 -35 25 -22 24 23
-1 34 -2 37 -8 17 l-7 -25 -15 23 c-21 33 -29 27 -28 -20z"/>
<path d="M1760 780 c0 -39 1 -40 33 -39 23 1 26 3 10 6 -26 5 -31 23 -8 23 8
0 15 5 15 10 0 6 -7 10 -15 10 -21 0 -19 18 3 23 10 3 6 5 -10 6 -26 1 -28 -2
-28 -39z"/>
<path d="M1832 783 c3 -33 6 -38 28 -38 22 0 25 5 28 38 2 21 -1 37 -7 37 -6
0 -11 -16 -11 -35 0 -19 -4 -35 -10 -35 -5 0 -10 16 -10 35 0 19 -5 35 -11 35
-6 0 -9 -16 -7 -37z"/>
<path d="M1910 781 c0 -23 5 -41 11 -41 5 0 8 4 4 9 -3 5 -1 12 4 15 5 3 11
-1 15 -9 10 -27 21 -16 21 23 0 33 -3 37 -27 40 -27 3 -28 1 -28 -37z m34 8
c-3 -5 -10 -7 -15 -3 -5 3 -7 10 -3 15 3 5 10 7 15 3 5 -3 7 -10 3 -15z"/>
<path d="M1984 808 c-4 -6 2 -19 14 -29 28 -22 28 -32 1 -24 -15 5 -19 4 -15
-4 4 -6 18 -11 32 -11 30 0 34 36 4 45 -11 3 -20 11 -20 16 0 6 9 7 21 4 15
-5 19 -4 15 4 -9 14 -43 14 -52 -1z"/>
<path d="M560 679 c0 -18 2 -19 15 -9 15 12 12 30 -6 30 -5 0 -9 -10 -9 -21z"/>
<path d="M606 693 c6 -4 14 -15 17 -23 5 -11 6 -9 4 4 -1 11 -9 21 -17 23 -10
3 -11 2 -4 -4z"/>
<path d="M640 683 c0 -11 6 -20 14 -20 16 0 14 29 -2 35 -7 2 -12 -5 -12 -15z"/>
<path d="M680 689 c0 -5 5 -7 10 -4 6 3 10 8 10 11 0 2 -4 4 -10 4 -5 0 -10
-5 -10 -11z"/>
<path d="M736 693 c6 -4 14 -15 17 -23 5 -11 6 -9 4 4 -1 11 -9 21 -17 23 -10
3 -11 2 -4 -4z"/>
<path d="M770 680 c0 -11 2 -20 4 -20 2 0 6 9 9 20 3 11 1 20 -4 20 -5 0 -9
-9 -9 -20z"/>
<path d="M820 680 c0 -13 5 -20 13 -17 6 2 12 10 12 17 0 7 -6 15 -12 18 -8 2
-13 -5 -13 -18z"/>
<path d="M866 693 c6 -4 14 -15 17 -23 5 -11 6 -9 4 4 -1 11 -9 21 -17 23 -10
3 -11 2 -4 -4z"/>
<path d="M902 680 c0 -14 2 -19 5 -12 2 6 2 18 0 25 -3 6 -5 1 -5 -13z"/>
<path d="M921 684 c0 -11 3 -14 6 -6 3 7 2 16 -1 19 -3 4 -6 -2 -5 -13z"/>
<path d="M947 693 c-11 -10 -8 -20 7 -26 10 -4 12 0 9 14 -6 21 -7 22 -16 12z"/>
<path d="M1017 693 c-11 -10 -8 -20 7 -26 10 -4 12 0 9 14 -6 21 -7 22 -16 12z"/>
<path d="M1170 679 c0 -18 2 -19 15 -9 15 12 12 30 -6 30 -5 0 -9 -10 -9 -21z"/>
<path d="M1222 686 c7 -8 15 -12 17 -11 5 6 -10 25 -20 25 -5 0 -4 -6 3 -14z"/>
<path d="M1250 685 c0 -9 5 -15 11 -13 6 2 11 8 11 13 0 5 -5 11 -11 13 -6 2
-11 -4 -11 -13z"/>
<path d="M1290 680 c0 -11 2 -20 4 -20 2 0 6 9 9 20 3 11 1 20 -4 20 -5 0 -9
-9 -9 -20z"/>
<path d="M1425 690 c-11 -17 4 -28 37 -26 32 2 48 19 28 31 -6 4 -20 -1 -31
-11 -10 -9 -22 -14 -26 -10 -4 4 -1 11 7 16 9 6 10 10 3 10 -6 0 -15 -4 -18
-10z m65 -10 c0 -5 -4 -10 -10 -10 -5 0 -10 5 -10 10 0 6 5 10 10 10 6 0 10
-4 10 -10z"/>
<path d="M1548 682 c-3 -11 0 -19 8 -19 16 0 19 23 5 31 -5 3 -11 -2 -13 -12z"/>
<path d="M1582 680 c0 -14 2 -19 5 -12 2 6 2 18 0 25 -3 6 -5 1 -5 -13z"/>
<path d="M1617 681 c-3 -14 -1 -18 9 -14 16 6 18 19 5 27 -5 3 -11 -3 -14 -13z"/>
<path d="M1171 614 c0 -11 3 -14 6 -6 3 7 2 16 -1 19 -3 4 -6 -2 -5 -13z"/>
<path d="M1220 612 c0 -8 3 -12 6 -9 4 3 15 2 25 -4 15 -7 17 -6 13 6 -7 17
11 21 21 5 3 -5 11 -10 18 -10 8 0 8 3 -1 12 -18 18 -82 18 -82 0z"/>
<path d="M1316 615 c4 -8 7 -15 9 -15 2 0 5 7 9 15 3 9 0 15 -9 15 -9 0 -12
-6 -9 -15z"/>
<path d="M1350 615 c0 -8 4 -15 8 -15 5 0 9 7 9 15 0 8 -4 15 -9 15 -4 0 -8
-7 -8 -15z"/>
<path d="M1437 617 c-5 -12 -1 -17 13 -17 12 0 20 7 20 18 0 13 -2 14 -9 3 -7
-11 -9 -11 -13 0 -3 9 -6 8 -11 -4z"/>
<path d="M1488 623 c6 -2 12 -9 12 -14 0 -6 -5 -7 -12 -3 -6 4 -8 3 -5 -3 9
-14 52 -9 52 7 0 7 -13 14 -30 15 -16 2 -24 1 -17 -2z"/>
<path d="M1550 610 c0 -11 2 -20 4 -20 2 0 6 9 9 20 3 11 1 20 -4 20 -5 0 -9
-9 -9 -20z"/>
<path d="M1583 615 c0 -8 4 -15 9 -15 4 0 8 7 8 15 0 8 -4 15 -8 15 -5 0 -9
-7 -9 -15z"/>
<path d="M1610 621 c0 -6 4 -13 10 -16 6 -3 7 1 4 9 -7 18 -14 21 -14 7z"/>
<path d="M1641 614 c0 -11 3 -14 6 -6 3 7 2 16 -1 19 -3 4 -6 -2 -5 -13z"/>
<path d="M1660 621 c0 -6 4 -12 8 -15 5 -3 9 1 9 9 0 8 -4 15 -9 15 -4 0 -8
-4 -8 -9z"/>
<path d="M1690 615 c0 -8 2 -15 4 -15 2 0 6 7 10 15 3 8 1 15 -4 15 -6 0 -10
-7 -10 -15z"/>
<path d="M1720 615 c0 -8 5 -15 10 -15 6 0 10 7 10 15 0 8 -4 15 -10 15 -5 0
-10 -7 -10 -15z"/>
<path d="M1800 610 c0 -11 2 -20 4 -20 2 0 6 9 9 20 3 11 1 20 -4 20 -5 0 -9
-9 -9 -20z"/>
<path d="M1827 623 c-10 -9 -9 -23 2 -23 5 0 11 7 15 15 5 15 -5 20 -17 8z"/>
<path d="M1860 625 c0 -5 4 -16 9 -23 6 -11 10 -10 15 4 3 9 4 19 1 22 -3 3
-5 -1 -5 -9 0 -11 -2 -11 -10 1 -5 8 -10 11 -10 5z"/>
<path d="M1920 616 c0 -8 4 -17 9 -20 5 -4 7 3 4 14 -6 23 -13 26 -13 6z"/>
<path d="M1955 620 c-4 -6 -3 -16 3 -22 6 -6 12 -6 17 2 4 6 3 16 -3 22 -6 6
-12 6 -17 -2z"/>
<path d="M1993 615 c0 -8 4 -12 9 -9 4 3 8 9 8 15 0 5 -4 9 -8 9 -5 0 -9 -7
-9 -15z"/>
<path d="M2023 615 c0 -8 4 -12 9 -9 4 3 8 9 8 15 0 5 -4 9 -8 9 -5 0 -9 -7
-9 -15z"/>
<path d="M2050 610 c0 -11 2 -20 4 -20 2 0 6 9 9 20 3 11 1 20 -4 20 -5 0 -9
-9 -9 -20z"/>
<path d="M2083 615 c0 -8 4 -15 9 -15 4 0 8 7 8 15 0 8 -4 15 -8 15 -5 0 -9
-7 -9 -15z"/>
<path d="M1195 610 c3 -5 8 -10 11 -10 2 0 4 5 4 10 0 6 -5 10 -11 10 -5 0 -7
-4 -4 -10z"/>
<path d="M210 460 l0 -60 950 0 950 0 0 60 0 60 -950 0 -950 0 0 -60z m223 13
c-7 -19 -28 -43 -37 -43 -3 0 -6 14 -6 30 0 25 4 30 25 30 19 0 23 -4 18 -17z
m97 -13 c0 -16 -4 -30 -10 -30 -5 0 -10 14 -10 30 0 17 5 30 10 30 6 0 10 -13
10 -30z m90 6 c0 -15 7 -26 18 -29 10 -3 6 -5 -10 -6 -25 -1 -28 3 -28 29 0
17 5 30 10 30 6 0 10 -11 10 -24z m120 -6 c0 -16 -4 -30 -10 -30 -5 0 -10 14
-10 30 0 17 5 30 10 30 6 0 10 -13 10 -30z m120 4 c6 -14 10 -27 10 -28 0 -1
-13 -3 -30 -3 -16 0 -30 2 -30 3 0 15 22 54 30 54 6 0 15 -12 20 -26z m100 0
c0 -14 4 -23 9 -19 5 3 12 1 16 -5 4 -6 -5 -10 -19 -10 -22 0 -26 4 -26 30 0
17 5 30 10 30 6 0 10 -12 10 -26z m143 6 c-3 -11 -10 -20 -17 -21 -6 0 -2 -4
9 -9 18 -8 17 -9 -7 -9 -25 -1 -28 3 -28 29 0 25 4 30 24 30 19 0 23 -4 19
-20z m222 -10 c0 -20 -6 -26 -27 -28 -25 -3 -28 0 -28 28 0 28 3 31 28 28 21
-2 27 -8 27 -28z m95 5 c0 -14 5 -25 10 -25 6 0 10 11 10 25 0 14 5 25 11 25
6 0 9 -12 7 -27 -2 -22 -8 -28 -28 -28 -20 0 -26 6 -28 28 -2 15 1 27 7 27 6
0 11 -11 11 -25z m250 5 c0 -11 -6 -20 -14 -20 -8 0 -16 -6 -19 -12 -3 -9 -7
-7 -12 5 -10 25 1 47 25 47 13 0 20 -7 20 -20z m120 -6 c6 -14 10 -27 10 -28
0 -1 -13 -3 -30 -3 -16 0 -30 2 -30 3 0 15 22 54 30 54 6 0 15 -12 20 -26z
m135 -4 c0 -20 -6 -26 -27 -28 -25 -3 -28 0 -28 28 0 28 3 31 28 28 21 -2 27
-8 27 -28z"/>
<path d="M1290 454 c0 -8 5 -12 10 -9 6 3 10 10 10 16 0 5 -4 9 -10 9 -5 0
-10 -7 -10 -16z"/>
<path d="M1890 454 c0 -8 5 -12 10 -9 6 3 10 10 10 16 0 5 -4 9 -10 9 -5 0
-10 -7 -10 -16z"/>
</g>
</svg>
