<?xml version="1.0" standalone="no"?>
<!DOCTYPE svg PUBLIC "-//W3C//DTD SVG 20010904//EN"
 "http://www.w3.org/TR/2001/REC-SVG-20010904/DTD/svg10.dtd">
<svg version="1.0" xmlns="http://www.w3.org/2000/svg"
 width="225.000000pt" height="225.000000pt" viewBox="0 0 225.000000 225.000000"
 preserveAspectRatio="xMidYMid meet">

<g transform="translate(0.000000,225.000000) scale(0.100000,-0.100000)"
fill="#000000" stroke="none">
<path d="M990 1433 c-60 -17 -100 -37 -100 -49 0 -11 9 -10 43 7 23 12 53 25
67 29 13 3 20 9 15 12 -6 3 -17 3 -25 1z"/>
<path d="M1030 1413 c-61 -24 -142 -64 -137 -69 6 -6 146 52 162 67 10 10 -1
11 -25 2z"/>
<path d="M975 1354 c-86 -38 -91 -41 -83 -50 3 -3 28 6 55 19 26 13 65 30 86
36 20 7 37 17 37 22 0 13 -5 11 -95 -27z"/>
<path d="M735 1328 c-38 -16 -90 -38 -114 -47 -31 -13 -39 -20 -27 -24 17 -7
221 77 232 94 9 16 -19 9 -91 -23z"/>
<path d="M970 1313 c-82 -38 -86 -40 -78 -49 8 -7 153 60 162 75 11 16 -2 13
-84 -26z"/>
<path d="M483 1319 c-30 -19 -80 -85 -71 -94 2 -2 12 11 22 29 9 18 36 44 59
59 22 15 37 27 32 27 -6 0 -24 -10 -42 -21z"/>
<path d="M610 1333 c8 -3 24 -10 35 -15 20 -9 20 -9 1 6 -11 9 -27 16 -35 15
-14 0 -14 -1 -1 -6z"/>
<path d="M780 1305 c-14 -8 -55 -26 -93 -41 -37 -14 -65 -29 -62 -34 5 -8 182
64 200 81 14 14 -17 10 -45 -6z"/>
<path d="M775 1266 c-94 -41 -129 -59 -119 -63 6 -2 49 14 95 36 46 22 77 40
69 40 -8 0 -28 -6 -45 -13z"/>
<path d="M745 1215 c-38 -19 -75 -34 -81 -35 -11 0 -29 -30 -18 -30 2 0 26 11
52 24 26 13 64 29 85 35 20 7 37 19 37 27 0 8 -1 14 -2 13 -2 0 -34 -16 -73
-34z"/>
<path d="M567 1220 c-10 -12 -17 -37 -17 -60 0 -33 3 -40 20 -40 18 0 20 7 20
60 0 33 -1 60 -3 60 -1 0 -10 -9 -20 -20z m13 -30 c0 -5 -5 -10 -11 -10 -5 0
-7 5 -4 10 3 6 8 10 11 10 2 0 4 -4 4 -10z"/>
<path d="M425 1193 c-79 -34 -124 -63 -96 -63 21 0 155 66 170 83 7 9 12 17
10 16 -2 -1 -40 -17 -84 -36z"/>
<path d="M872 1188 c-24 -24 -14 -66 23 -94 19 -14 35 -35 35 -45 0 -25 -20
-24 -27 1 -7 26 -43 27 -43 2 0 -23 30 -52 54 -52 35 0 56 20 56 53 0 38 -6
47 -42 70 -27 17 -38 47 -18 47 6 0 10 -7 10 -15 0 -9 9 -15 25 -15 18 0 25 5
25 20 0 34 -71 55 -98 28z"/>
<path d="M1024 1192 c-19 -3 -22 -13 -30 -93 -9 -89 -9 -89 13 -89 14 0 23 6
23 15 0 8 7 15 15 15 8 0 14 -6 13 -12 -2 -7 7 -14 20 -16 26 -4 26 -3 10 100
-12 79 -18 88 -64 80z m29 -89 c5 -26 3 -33 -9 -33 -12 0 -15 6 -10 23 3 12 6
28 6 36 0 22 6 9 13 -26z"/>
<path d="M1138 1189 c-15 -8 -18 -24 -18 -89 0 -68 3 -81 19 -90 44 -23 91 2
91 48 0 31 -37 30 -42 0 -7 -48 -23 -20 -26 45 -2 55 0 67 13 67 9 0 15 -9 15
-25 0 -18 5 -25 20 -25 16 0 20 7 20 30 0 43 -49 64 -92 39z"/>
<path d="M1276 1187 c-16 -12 -19 -25 -17 -87 1 -41 7 -80 13 -87 18 -23 71
-12 85 17 16 32 16 108 0 140 -15 29 -53 37 -81 17z m44 -87 c0 -40 -4 -70
-10 -70 -6 0 -10 30 -10 70 0 40 4 70 10 70 6 0 10 -30 10 -70z"/>
<path d="M1390 1103 c0 -87 1 -93 21 -93 16 0 20 6 19 28 -3 45 1 49 14 12 8
-23 20 -36 34 -38 21 -3 22 0 22 87 0 83 -2 91 -19 91 -16 0 -21 -8 -23 -37
l-3 -38 -14 40 c-9 29 -19 41 -32 41 -17 0 -19 -8 -19 -93z"/>
<path d="M1538 1192 c-16 -3 -18 -16 -18 -93 l0 -89 45 0 c33 0 45 4 45 15 0
8 -9 15 -20 15 -15 0 -20 7 -20 25 0 16 6 25 15 25 8 0 15 7 15 15 0 8 -7 15
-15 15 -8 0 -15 9 -15 20 0 11 7 20 15 20 8 0 15 6 15 14 0 14 -33 24 -62 18z"/>
<path d="M1643 1192 c-24 -4 -32 -27 -11 -34 7 -3 11 -28 9 -76 -2 -71 -2 -72
23 -72 26 0 26 1 26 75 0 60 3 75 15 75 8 0 15 8 15 18 0 17 -24 21 -77 14z"/>
<path d="M1746 1184 c-27 -26 -19 -60 19 -90 19 -14 35 -35 35 -45 0 -25 -17
-24 -25 1 -7 22 -45 28 -45 7 0 -7 7 -23 16 -35 21 -31 69 -30 89 2 22 33 11
67 -31 94 -34 22 -40 42 -16 50 7 2 12 -3 12 -12 0 -9 8 -16 20 -16 26 0 27
36 1 50 -28 14 -57 12 -75 -6z"/>
<path d="M401 1139 c-85 -40 -110 -66 -30 -31 24 11 61 27 82 36 20 8 37 20
37 26 0 5 -1 10 -2 9 -2 0 -41 -19 -87 -40z"/>
<path d="M721 1144 c0 -11 3 -14 6 -6 3 7 2 16 -1 19 -3 4 -6 -2 -5 -13z"/>
<path d="M403 1103 c-46 -20 -80 -39 -78 -44 5 -7 149 54 170 73 17 15 -9 7
-92 -29z"/>
<path d="M1923 1133 c-22 -8 -14 -46 15 -69 22 -18 25 -25 15 -35 -11 -11 -13
-10 -13 4 0 9 -7 17 -15 17 -18 0 -20 -21 -3 -38 17 -17 46 -15 56 6 12 21 -2
60 -23 68 -8 4 -15 14 -14 23 0 10 2 11 6 4 6 -18 33 -16 33 1 0 20 -30 31
-57 19z"/>
<path d="M2046 1093 c-9 -60 -7 -83 8 -83 8 0 17 6 19 13 4 10 6 10 6 0 1 -7
10 -13 22 -13 15 0 19 5 15 18 -2 9 -8 36 -11 60 -6 35 -10 42 -30 42 -18 0
-24 -7 -29 -37z m31 -30 c-3 -10 -5 -4 -5 12 0 17 2 24 5 18 2 -7 2 -21 0 -30z"/>
<path d="M171 1081 c-41 -20 -77 -43 -79 -51 -4 -12 -2 -12 9 -4 8 5 46 23 84
39 82 33 81 33 69 44 -5 5 -39 -6 -83 -28z"/>
<path d="M470 1095 c-25 -13 -66 -31 -92 -40 -25 -9 -49 -23 -52 -31 -5 -12 0
-12 32 2 20 8 70 29 110 46 39 16 70 34 66 39 -7 13 -13 11 -64 -16z"/>
<path d="M692 1090 c-32 -43 -76 -63 -131 -58 -25 3 -55 8 -66 12 -12 5 -10 2
5 -8 36 -22 105 -20 149 5 35 20 77 66 69 75 -3 2 -14 -10 -26 -26z"/>
<path d="M166 1035 c-80 -35 -93 -42 -85 -49 4 -4 165 66 176 77 14 14 -15 6
-91 -28z"/>
<path d="M172 1002 c-46 -20 -77 -38 -69 -40 18 -4 157 58 157 69 0 11 8 14
-88 -29z"/>
<path d="M2000 1020 c0 -5 5 -10 11 -10 5 0 7 5 4 10 -3 6 -8 10 -11 10 -2 0
-4 -4 -4 -10z"/>
<path d="M2135 1020 c-3 -5 -1 -10 4 -10 6 0 11 5 11 10 0 6 -2 10 -4 10 -3 0
-8 -4 -11 -10z"/>
<path d="M185 970 c-33 -15 -52 -29 -42 -29 24 -1 117 39 117 50 0 13 -9 11
-75 -21z"/>
</g>
</svg>
