<?xml version="1.0" standalone="no"?>
<!DOCTYPE svg PUBLIC "-//W3C//DTD SVG 20010904//EN"
 "http://www.w3.org/TR/2001/REC-SVG-20010904/DTD/svg10.dtd">
<svg version="1.0" xmlns="http://www.w3.org/2000/svg"
 width="339.000000pt" height="149.000000pt" viewBox="0 0 339.000000 149.000000"
 preserveAspectRatio="xMidYMid meet">

<g transform="translate(0.000000,149.000000) scale(0.100000,-0.100000)"
fill="#000000" stroke="none">
<path d="M2839 1155 c-1 -3 -3 -9 -4 -15 -1 -5 -3 -15 -4 -21 0 -5 -5 -7 -11
-4 -5 3 -17 2 -26 -3 -11 -6 -13 -11 -5 -16 6 -4 11 -2 11 4 0 6 11 8 25 6 18
-3 28 1 35 15 6 11 7 19 3 18 -20 -3 -27 2 -13 11 10 6 11 10 3 10 -7 0 -14
-2 -14 -5z"/>
<path d="M2887 1109 c7 -7 15 -10 18 -7 3 3 -2 9 -12 12 -14 6 -15 5 -6 -5z"/>
<path d="M2750 1106 c0 -2 8 -10 18 -17 15 -13 16 -12 3 4 -13 16 -21 21 -21
13z"/>
<path d="M2919 1093 c-13 -17 -13 -17 6 -3 11 8 22 16 24 17 2 2 0 3 -6 3 -6
0 -17 -8 -24 -17z"/>
<path d="M2985 1096 c12 -8 16 -20 12 -35 -3 -11 -1 -19 4 -15 21 13 1 64 -25
64 -5 0 -2 -6 9 -14z"/>
<path d="M2860 1090 c0 -5 5 -10 11 -10 5 0 7 5 4 10 -3 6 -8 10 -11 10 -2 0
-4 -4 -4 -10z"/>
<path d="M2948 1013 c3 -49 9 -73 23 -88 13 -13 19 -15 19 -6 0 8 6 11 15 7 8
-3 15 -1 15 4 0 6 -4 10 -10 10 -5 0 -10 8 -10 18 0 9 -5 24 -11 32 -8 11 -9
5 -4 -24 5 -29 3 -37 -7 -34 -8 3 -13 24 -14 60 -1 30 -5 62 -11 72 -6 11 -8
-6 -5 -51z"/>
<path d="M2730 1055 c-7 -9 -8 -15 -2 -15 5 0 12 7 16 15 3 8 4 15 2 15 -2 0
-9 -7 -16 -15z"/>
<path d="M2807 1043 c18 -2 50 -2 70 0 21 2 7 4 -32 4 -38 0 -55 -2 -38 -4z"/>
<path d="M2803 1004 c-3 -8 0 -21 6 -27 9 -9 11 -8 5 7 -4 11 -2 21 7 27 10 6
11 9 1 9 -7 0 -15 -7 -19 -16z"/>
<path d="M2596 993 c5 -5 12 -12 15 -16 3 -5 9 -2 12 7 5 12 0 16 -15 16 -12
0 -17 -3 -12 -7z"/>
<path d="M3067 984 c3 -9 9 -12 12 -7 3 4 10 11 15 16 5 4 0 7 -12 7 -15 0
-20 -4 -15 -16z"/>
<path d="M2530 980 c-9 -6 -10 -10 -3 -10 6 0 15 5 18 10 8 12 4 12 -15 0z"/>
<path d="M3140 986 c0 -2 7 -7 16 -10 8 -3 12 -2 9 4 -6 10 -25 14 -25 6z"/>
<path d="M162 964 c-41 -29 -23 -68 42 -89 21 -7 31 -16 31 -30 0 -16 -7 -20
-40 -22 -60 -2 -61 -3 -45 -13 21 -14 84 -12 98 2 7 7 12 24 12 39 0 22 -8 30
-50 47 -27 12 -50 25 -50 30 0 20 31 34 60 29 34 -7 50 8 17 17 -35 9 -51 7
-75 -10z"/>
<path d="M558 950 c4 -28 3 -29 -32 -23 -47 7 -76 -17 -76 -62 0 -46 26 -65
83 -63 l47 2 0 88 c0 66 -3 88 -13 88 -9 0 -12 -9 -9 -30z m-7 -61 c17 -33 -4
-71 -38 -67 -36 4 -50 29 -35 62 15 33 56 35 73 5z"/>
<path d="M740 973 c-62 -23 -81 -103 -35 -149 20 -20 33 -25 67 -22 23 2 43 8
45 13 2 7 -12 9 -35 7 -33 -3 -43 1 -61 23 -28 36 -27 60 5 92 21 21 32 24 60
20 35 -6 47 6 18 17 -18 7 -43 7 -64 -1z"/>
<path d="M2696 966 c4 -9 -1 -18 -10 -22 -9 -3 -15 -16 -15 -28 1 -17 2 -18 6
-3 3 13 11 16 26 12 15 -4 18 -3 9 3 -7 5 -10 16 -7 24 4 9 2 19 -4 23 -7 3
-8 0 -5 -9z"/>
<path d="M2848 963 c7 -3 16 -2 19 1 4 3 -2 6 -13 5 -11 0 -14 -3 -6 -6z"/>
<path d="M300 876 c0 -64 12 -77 69 -74 l41 1 0 64 c0 73 -17 86 -22 17 -3
-50 -22 -72 -52 -61 -12 5 -16 19 -16 57 0 27 -4 50 -10 50 -5 0 -10 -24 -10
-54z"/>
<path d="M860 921 c0 -6 16 -11 35 -11 27 0 35 -4 35 -19 0 -14 -6 -17 -23
-14 -13 3 -33 -3 -46 -14 -20 -16 -22 -23 -12 -41 10 -18 19 -21 66 -20 55 2
63 6 46 24 -6 5 -11 29 -13 54 l-3 45 -42 3 c-26 2 -43 -1 -43 -7z m68 -78
c-3 -19 -30 -28 -53 -19 -25 9 -5 36 27 36 23 0 29 -4 26 -17z"/>
<path d="M1000 865 c0 -37 4 -65 10 -65 6 0 10 20 10 44 0 46 19 72 45 62 11
-4 15 -20 15 -56 0 -37 4 -50 14 -50 11 0 16 15 18 52 2 42 7 54 22 56 25 5
36 -14 36 -65 0 -24 5 -43 10 -43 14 0 12 104 -2 118 -15 15 -50 16 -65 1 -8
-8 -17 -7 -32 3 -17 10 -25 10 -41 0 -12 -7 -20 -8 -20 -2 0 5 -4 10 -10 10
-6 0 -10 -28 -10 -65z"/>
<path d="M1247 912 c-21 -23 -22 -76 -1 -96 17 -17 79 -22 89 -7 3 6 -14 11
-37 13 -31 2 -44 8 -46 21 -3 14 4 17 47 17 55 0 62 9 35 48 -19 27 -64 29
-87 4z m73 -22 c10 -18 8 -20 -30 -20 -41 0 -49 7 -28 28 18 18 46 14 58 -8z"/>
<path d="M1380 865 c0 -37 4 -65 10 -65 6 0 10 18 10 39 0 38 15 64 42 74 7 2
9 8 5 13 -4 4 -17 3 -27 -4 -12 -7 -20 -8 -20 -2 0 5 -4 10 -10 10 -6 0 -10
-28 -10 -65z"/>
<path d="M1487 912 c-22 -25 -21 -75 1 -95 43 -39 112 -8 112 50 0 53 -78 84
-113 45z m69 -10 c34 -23 20 -82 -19 -82 -29 0 -47 18 -47 45 0 36 37 57 66
37z"/>
<path d="M1630 884 c0 -71 12 -84 70 -82 l50 2 0 63 c0 48 -3 63 -14 63 -11 0
-16 -15 -18 -52 -3 -49 -5 -53 -28 -53 -23 0 -25 4 -28 53 -2 37 -7 52 -18 52
-10 0 -14 -12 -14 -46z"/>
<path d="M1790 865 c0 -74 17 -89 22 -19 3 50 22 72 52 61 12 -5 16 -19 16
-57 0 -27 5 -50 10 -50 14 0 12 104 -2 118 -15 15 -51 15 -66 0 -9 -9 -12 -9
-12 0 0 7 -4 12 -10 12 -6 0 -10 -28 -10 -65z"/>
<path d="M2584 908 l-19 -23 23 19 c21 18 27 26 19 26 -2 0 -12 -10 -23 -22z"/>
<path d="M2865 920 c-16 -7 -17 -9 -3 -9 9 -1 20 4 23 9 7 11 7 11 -20 0z"/>
<path d="M2818 913 c7 -3 16 -2 19 1 4 3 -2 6 -13 5 -11 0 -14 -3 -6 -6z"/>
<path d="M2952 880 c0 -19 2 -27 5 -17 2 9 2 25 0 35 -3 9 -5 1 -5 -18z"/>
<path d="M3116 885 c24 -39 24 -40 24 -28 0 6 -9 21 -21 34 l-20 24 17 -30z"/>
<path d="M2649 873 c-13 -16 -12 -17 4 -4 16 13 21 21 13 21 -2 0 -10 -8 -17
-17z"/>
<path d="M2681 846 l-24 -31 28 27 c16 15 27 29 24 31 -2 3 -15 -10 -28 -27z"/>
<path d="M2811 859 c-1 -22 24 -42 46 -36 14 4 13 5 -5 6 -13 1 -26 10 -32 24
-6 15 -9 17 -9 6z"/>
<path d="M3005 840 c10 -11 20 -20 23 -20 3 0 -3 9 -13 20 -10 11 -20 20 -23
20 -3 0 3 -9 13 -20z"/>
<path d="M2929 823 c-13 -16 -12 -17 4 -4 9 7 17 15 17 17 0 8 -8 3 -21 -13z"/>
<path d="M3142 810 c0 -14 2 -19 5 -12 2 6 2 18 0 25 -3 6 -5 1 -5 -13z"/>
<path d="M3110 803 c0 -6 8 -17 18 -24 16 -13 16 -13 2 6 -8 11 -16 22 -17 24
-2 2 -3 0 -3 -6z"/>
<path d="M150 620 c0 -53 4 -90 10 -90 6 0 10 18 10 40 l0 40 45 0 45 0 0 -40
c0 -29 4 -40 15 -40 12 0 15 17 15 90 0 73 -3 90 -15 90 -11 0 -15 -11 -15
-40 l0 -40 -45 0 -45 0 0 40 c0 22 -4 40 -10 40 -6 0 -10 -37 -10 -90z"/>
<path d="M975 694 c-27 -28 -14 -57 35 -81 29 -14 45 -28 45 -40 0 -15 -8 -18
-47 -17 -48 0 -62 -8 -32 -20 54 -21 108 4 102 49 -2 23 -11 31 -43 42 -22 7
-44 18 -49 23 -16 16 15 41 48 40 46 -3 53 -1 36 10 -23 15 -77 12 -95 -6z"/>
<path d="M1205 633 c-16 -43 -30 -84 -33 -90 -8 -25 19 -13 28 12 8 21 16 25
49 25 33 0 40 -4 45 -25 4 -14 13 -25 20 -25 19 0 -46 174 -66 178 -10 2 -24
-21 -43 -75z m63 0 c11 -32 10 -33 -19 -33 -32 0 -34 3 -18 49 13 36 21 32 37
-16z"/>
<path d="M2521 678 c-1 -20 6 -30 27 -40 17 -9 27 -21 26 -35 0 -12 3 -20 8
-17 4 3 8 16 8 28 0 17 -9 27 -29 36 -17 7 -32 21 -34 33 -4 18 -5 17 -6 -5z"/>
<path d="M2575 690 c3 -5 8 -10 11 -10 2 0 4 5 4 10 0 6 -5 10 -11 10 -5 0 -7
-4 -4 -10z"/>
<path d="M2628 625 c2 -25 7 -45 11 -45 3 0 5 20 3 45 -2 25 -7 45 -11 45 -3
0 -5 -20 -3 -45z"/>
<path d="M2740 625 c0 -25 5 -45 10 -45 6 0 10 20 10 45 0 25 -4 45 -10 45 -5
0 -10 -20 -10 -45z"/>
<path d="M2862 658 c-14 -14 -16 -64 -2 -73 6 -4 7 6 4 24 -4 19 -2 37 6 46
15 18 9 20 -8 3z"/>
<path d="M3070 660 c0 -5 4 -10 8 -10 4 0 14 -16 21 -36 7 -19 15 -33 18 -30
8 8 -28 86 -39 86 -4 0 -8 -4 -8 -10z"/>
<path d="M3155 625 c0 -25 3 -45 8 -45 4 0 7 20 7 45 0 25 -3 45 -8 45 -4 0
-7 -20 -7 -45z"/>
<path d="M349 650 c-34 -20 -31 -88 5 -112 16 -11 74 -10 81 2 4 6 -6 10 -24
10 -39 0 -61 9 -61 26 0 10 14 14 51 14 48 0 50 1 43 23 -3 12 -11 28 -16 35
-12 14 -56 15 -79 2z m69 -32 c3 -15 -4 -18 -32 -18 -34 0 -47 15 -29 34 13
13 58 1 61 -16z"/>
<path d="M470 651 c0 -23 44 -121 54 -121 6 0 20 24 30 53 10 28 21 58 24 66
3 8 0 12 -8 9 -8 -2 -21 -26 -30 -54 l-17 -49 -17 53 c-10 28 -22 52 -27 52
-5 0 -9 -4 -9 -9z"/>
<path d="M616 638 c-22 -31 -20 -64 4 -88 21 -21 74 -27 85 -10 4 6 -8 10 -27
10 -32 0 -58 14 -58 32 0 4 23 8 50 8 43 0 50 3 50 19 0 49 -76 70 -104 29z
m82 -20 c3 -15 -4 -18 -37 -18 -43 0 -50 7 -29 28 18 18 62 11 66 -10z"/>
<path d="M760 649 c0 -6 10 -10 23 -9 38 3 47 1 47 -15 0 -9 -9 -15 -24 -15
-42 0 -56 -11 -56 -41 0 -23 6 -30 27 -35 14 -4 34 -2 45 5 11 7 18 7 18 1 0
-5 7 -10 15 -10 16 0 20 15 7 24 -5 3 -7 18 -4 34 7 48 -12 72 -58 72 -22 0
-40 -5 -40 -11z m68 -76 c-2 -11 -14 -19 -31 -21 -22 -3 -27 1 -27 17 0 17 6
21 31 21 24 0 30 -4 27 -17z"/>
<path d="M2808 624 c4 -29 7 -33 14 -21 5 11 5 24 -2 37 -15 28 -17 25 -12
-16z"/>
<path d="M3007 620 c9 -22 20 -40 24 -40 4 0 0 18 -9 40 -22 52 -35 52 -15 0z"/>
<path d="M1117 554 c-8 -8 1 -24 14 -24 5 0 9 7 9 15 0 15 -12 20 -23 9z"/>
</g>
</svg>
